<?php xml version="1.0" encoding="UTF-8" standalone="no"?>
<svg width="43px" height="43px" viewBox="0 0 43 43" version="1.1" xmlns="http://www.w3.org/2000/svg" xmlns:xlink="http://www.w3.org/1999/xlink" xmlns:sketch="http://www.bohemiancoding.com/sketch/ns">
    <!-- Generator: Sketch 3.2.2 (9983) - http://www.bohemiancoding.com/sketch -->
    <title>Play_icon</title>
    <desc>Created with Sketch.</desc>
    <defs>
        <filter x="-50%" y="-50%" width="200%" height="200%" filterUnits="objectBoundingBox" id="filter-1">
            <feOffset dx="1" dy="2" in="SourceAlpha" result="shadowOffsetOuter1"></feOffset>
            <feGaussianBlur stdDeviation="1.5" in="shadowOffsetOuter1" result="shadowBlurOuter1"></feGaussianBlur>
            <feColorMatrix values="0 0 0 0 0   0 0 0 0 0   0 0 0 0 0  0 0 0 0.285682745 0" in="shadowBlurOuter1" type="matrix" result="shadowMatrixOuter1"></feColorMatrix>
            <feMerge>
                <feMergeNode in="shadowMatrixOuter1"></feMergeNode>
                <feMergeNode in="SourceGraphic"></feMergeNode>
            </feMerge>
        </filter>
        <filter x="-50%" y="-50%" width="200%" height="200%" filterUnits="objectBoundingBox" id="filter-2">
            <feOffset dx="1" dy="2" in="SourceAlpha" result="shadowOffsetOuter1"></feOffset>
            <feGaussianBlur stdDeviation="1.5" in="shadowOffsetOuter1" result="shadowBlurOuter1"></feGaussianBlur>
            <feColorMatrix values="0 0 0 0 0   0 0 0 0 0   0 0 0 0 0  0 0 0 0.285682745 0" in="shadowBlurOuter1" type="matrix" result="shadowMatrixOuter1"></feColorMatrix>
            <feMerge>
                <feMergeNode in="shadowMatrixOuter1"></feMergeNode>
                <feMergeNode in="SourceGraphic"></feMergeNode>
            </feMerge>
        </filter>
    </defs>
    <g id="Welcome" stroke="none" stroke-width="1" fill="none" fill-rule="evenodd" sketch:type="MSPage">
        <g id="Desktop" sketch:type="MSArtboardGroup" transform="translate(-252.000000, -1564.000000)" fill="#FFFFFF">
            <g id="cabelas" sketch:type="MSLayerGroup" transform="translate(122.000000, 1508.000000)">
                <g id="Play_icon" transform="translate(132.000000, 57.000000)" sketch:type="MSShapeGroup">
                    <path d="M23.1097618,18.5 L16.2124791,11.5625 L16.2124791,25.4375 L23.1097618,18.5 Z" id="Shape" filter="url(#filter-1)"></path>
                    <path d="M0.118819727,18.5 C0.118819727,28.72125 8.34957697,37 18.5115734,37 C28.6735697,37 36.904327,28.72125 36.904327,18.5 C36.904327,8.27875 28.6735697,0 18.5115734,0 C8.34957697,0 0.118819727,8.27875 0.118819727,18.5 L0.118819727,18.5 Z M2.3489411,18.5 C2.3489411,9.99 10.0509067,2.243125 18.5115734,2.243125 C26.97224,2.243125 34.6052328,9.99 34.6052328,18.5 C34.6052328,27.01 26.2135389,34.6875 17.7528723,34.6875 C9.26921465,34.6875 2.3489411,27.01 2.3489411,18.5 L2.3489411,18.5 Z" id="Shape" filter="url(#filter-2)"></path>
                </g>
            </g>
        </g>
    </g>
</svg>