<svg viewBox="0 0 1079.15625 809.3671875">
<g class="main-group">
<g id="map-group">
<path class="child map-item shape" data-id="2" stroke="grey" id="mapa-comuna-2" d="M708.2383745681145,205.75187657159404L736.2589507216762,224.22321890716557L741.8058080700866,223.83205128251575L742.7004624811525,219.22499779204372L713.5705148578272,198.79820410822867L714.4293830924726,196.40791010382236L722.839134556154,197.7117048734217L726.238821318082,200.1020075022243L748.7841124761326,198.10284422160476L759.9493995258235,205.92572009770083L760.0209718787228,208.05531008038088L741.4121601292572,209.83722154740826L747.4242377713963,215.1830086746195L770.3273906938266,213.09683843448875L787.0753212684067,224.7013132457796L787.0395350919571,226.70062369824154L768.1802201073442,228.5260907303309L775.5879586306983,235.56726425501984L771.4725483399816,241.73926996297087L767.7507859900652,239.26176204599324L754.5814730596612,240.1745261439646L743.77404777435,232.74208555408404L739.336561895645,231.5685562804283L718.7237242654082,231.6554842440528L712.3537848588603,243.0866936824168L723.1254239677219,249.693489170284L729.1017154333822,254.9094656976231L740.803795129701,272.07925377594074L725.7020286714833,290.24969055710244L728.4933504339424,308.72535426646937L729.4595771978493,323.3326657145808L707.7373680979072,324.85429463943L687.2318889970193,325.37599746117485L675.2435198891617,323.6804660463822L666.2969757788233,317.8983290399774L639.7794190357963,317.724431616778L625.1786590477277,317.07231702574063L630.9402334547776,300.55247350470745L646.3640755009837,278.8604581935506L660.3564704895834,254.5182648455957L675.4940231242508,254.38786465575686L680.5040878260334,258.9084320407419L694.7469860496931,233.00287035485962L676.531822241057,219.13807281915797L672.953204596939,214.00953643245157L683.4385542942327,199.53702545390115L684.7626428226067,195.45179692914826L699.5781198693148,205.53457228155457Z" style="display: block; stroke-width: 3;"></path>
<path class="child map-item shape" id="mapa-comuna-1" data-id="1" d="M800.7098544925393,296.9008206066792L793.1231850869663,301.0741412185598L797.3101677306404,315.5072468119033L811.8393553658098,314.2899746684707L824.471875649615,306.6386437221954L824.7939512375742,304.7693090986868L835.9592382872652,305.0301459071343L841.6134541650245,306.8994818807987L849.0569788648281,312.02933728843345L852.8503135676438,317.46358563908143L865.7691232629295,330.07135677701444L871.8885594344174,334.02767915398L875.4671770785353,353.7664626536716L891.9288182415767,369.3321675238258L894.075988828059,372.76714810045087L897.225172354898,386.7248104882892L897.654606472177,396.4650566194323L894.5769952982373,399.9002954082389L886.489319422486,400.2916538005229L880.7635311918566,402.291936655005L873.1768617862836,402.59632849605987L864.1229591466254,400.1612009559176L859.2918253270618,403.37905155171757L861.4747820899647,407.81451426428976L856.9657238583604,410.3801499332185L851.7409420978802,412.38048870145576L842.9733288697898,411.42380355944624L839.8957176958211,403.1181436779152L814.4159600695712,435.7330897957727L797.0596644955513,435.9940212498768L797.0238783191016,444.25694822278456L787.4331830328156,454.6511092853034L786.3595977395889,442.29992210303317L773.4765742206946,442.9522629636049L757.4443671749614,453.9552565153281L758.9116004090756,459.0872022421099L753.5078877664055,470.04719515063334L749.5356221814291,470.2211659763707L749.2493327698903,460.5659120147466L741.8773804229568,466.5243039782217L716.9702016197843,474.7879301564244L714.035735151585,444.9092926213925L712.1390678002208,405.37935151709826L711.7454198593623,375.4629785337311L709.66982162575,340.15789065894205L707.7373680979072,324.85429463943L729.4595771978493,323.3326657145808L728.4933504339424,308.72535426646937L725.7020286714833,290.24969055710244L740.803795129701,272.07925377594074L729.1017154333822,254.9094656976231L723.1254239677219,249.693489170284L712.3537848588603,243.0866936824168L718.7237242654082,231.6554842440528L739.336561895645,231.5685562804283L743.77404777435,232.74208555408404L754.5814730596612,240.1745261439646L767.7507859900652,239.26176204599324L771.4725483399816,241.73926996297087L775.5879586306983,235.56726425501984L768.1802201073442,228.5260907303309L774.657518043241,233.82869013227173L796.9165197897819,231.6989482337376L806.6503597818373,238.34900025415118L806.6145736053877,240.21799115851172L787.7910447972536,242.00006125841173L793.4094744985341,246.99859747229493L816.0263380094257,244.82531235931674L823.6487935914483,249.95428620799794L823.6487935914483,252.04066928752582L803.7874656665081,253.9531976961589L808.0102344865736,259.0388338624907L825.86753653083,257.34361385161174L826.5474738832272,265.2547086349805L812.6624374239473,266.6022200707521L812.9845130119065,271.9053784136486L826.8337632947369,270.6882532212476L826.1896121188183,275.73065571920597L796.988092142652,282.9901001811959L802.3202324324229,287.2502013944031L804.5031891953258,295.3358378104458Z" style="display: block; stroke-width: 3;"></path>
<path class="child map-item shape" id="mapa-comuna-4" data-id="4" d="M856.9657238583604,410.3801499332185L860.7948447375675,412.25003148728865L867.379501202784,409.2495285771438L871.566483846429,413.33717637936934L873.8567991386808,422.03445341272163L881.6223994264146,419.77314122056123L882.6601985432208,411.16288986994186L886.9545397162437,407.1622369173274L899.9807079408492,407.0752666934859L903.2014638205583,408.9451311249286L907.7463082286413,423.07814074205817L906.279074994527,425.73085962288314L899.65863235289,424.90460083138896L896.8673105904891,427.9052339034679L902.5573126446398,433.6456449548423L907.2810879348835,434.2109934069158L914.5456817524973,441.4301361233811L910.5734161674918,448.3449925829191L900.3743558817368,451.6937442807248L888.4575591267494,440.25592837654403L881.515040897124,441.5171146270004L892.1793214766658,452.1286493788066L886.9903258926352,454.43365515055484L880.7993173683062,448.25801243341994L871.924345610867,445.0397616426053L865.80490943935,451.1718588548829L868.8109482604486,461.95764439558843L875.324032372795,464.0887450077862L864.8028964989935,468.04653668400715L857.2877994463488,462.7839880367974L854.389119154599,454.8250726875558L823.7561521207681,430.3840365645301L821.0721888876869,433.73262158207945L840.5040826953482,448.9538542162918L844.4405621038459,453.1724237531598L848.3412553360104,461.2617775340914L851.5262250392698,472.43930135821574L846.5877326903574,485.2699598907202L839.8599315194297,489.6629342880624L832.666910054686,497.013674463029L824.3287309438747,496.9266825791856L820.4996100646385,499.8844183984329L822.3604912395531,503.49462880950887L832.2732621137984,508.49678728717845L835.1719424056064,517.9358318012673L834.2057156416413,522.0247111721837L826.296970648109,526.3746337312914L819.2470938891929,534.6831316223252L811.4814936014009,535.9446480393817L791.0118006769626,549.6476106582559L790.976014500513,557.9131414570729L788.7214853847108,561.2194068255776L780.7053818618297,565.5698021815915L775.265883042739,573.8356979637174L768.2160062838229,573.9662136272527L755.905561587977,576.2284926351858L735.9010889572673,576.8810757560423L731.2488860198937,580.4920570411487L726.1314627887623,587.9316626129148L717.0417739726836,591.8908135436941L709.1330289791513,597.8948836306226L704.9818325119268,598.2429487310292L690.3452863474085,592.847977437661L682.7586169418937,591.7167840178008L675.8160987122101,585.4082704197208L670.3050275402784,584.7121653364738L661.1079801948508,587.4965937333473L652.8771596133593,586.8439913984912L646.1851446187939,582.7543769954063L638.1690410959418,580.8836114020378L622.0294755208888,584.3206068177824L607.715004944359,589.4979149262654L596.4065731888695,596.3285948375124L586.7085193732637,581.5797090935521L559.2247358663008,557.3911023278779L573.5392064428597,543.2963315006637L557.4712132206769,527.5056221902196L567.5271288006916,522.807693361101L566.704046742525,507.93132241649437L598.374812893162,501.2328060113068L642.1413066809182,492.09866591828177L644.8968422668695,479.6592089992482L641.2108660934609,469.3078200770833L640.2804255060037,458.434832210216L652.5192978488922,454.7815818291274L687.4823922321084,449.954129130143L710.0276833901589,445.0832513268688L714.035735151585,444.9092926213925L716.9702016197843,474.7879301564244L741.8773804229568,466.5243039782217L749.2493327698903,460.5659120147466L749.5356221814291,470.2211659763707L753.5078877664055,470.04719515063334L758.9116004090756,459.0872022421099L757.4443671749614,453.9552565153281L773.4765742206946,442.9522629636049L786.3595977395889,442.29992210303317L787.4331830328156,454.6511092853034L797.0238783191016,444.25694822278456L797.0596644955513,435.9940212498768L814.4159600695712,435.7330897957727L839.8957176958211,403.1181436779152L842.9733288697898,411.42380355944624L851.7409420978802,412.38048870145576Z" style="display: block; stroke-width: 3;"></path>
<path class="child map-item shape" id="mapa-comuna-13" data-id="13" d="M586.6727331968141,117.88467769767158L577.2251826163265,113.23552478264901L569.065934387676,115.23421870937455L559.4036667485489,122.22973447106779L560.3698935124557,126.31413545590476L552.7474379304331,130.96345656862832L547.5226561699819,135.83009973121807L539.8644144115679,139.21940778035787L535.1406391212367,144.1730690175027L535.8563626501127,152.16859528169152L545.2323408777593,159.77320012645214L544.9102652897418,163.33655573340366L535.1406391212367,161.81560696964152L529.9158573608729,168.3340038790193L511.1996870820003,181.71881408209447L506.94113208551425,186.67305784494965L536.6436585318006,205.18688568932703L525.0847235412512,219.31192278588424L532.8145376525936,225.65750382098486L539.5065526471299,233.17672699320246L527.0171770690649,247.3028584314743L523.3669870720478,253.25773164874408L500.1059723851795,241.65233957304736L475.80715858153417,232.6986214389617L466.93218682403676,232.09012437591446L456.3036924210028,218.2253618662653L441.3808568449458,206.88186098632286L438.8042521411262,208.66376666649012L419.8733648036723,181.50152424376574L444.4942541953351,162.07634058885742L442.5260144910426,158.29572151930188L428.81990891403984,139.6539367515652L416.04424392446526,119.62269414027105L438.4106042003259,104.50223094210378L410.6405312817951,59.70939754502615L454.12073565804167,36.38108898253995L471.6917482907593,11.881468578154454L479.70785181361134,11.57740570011083L482.10552563521196,15.921185354847694L488.9406853354885,21.698493116884492L490.4437047459942,28.735639248916414L483.42961416352773,35.20819699508138L485.8988603379694,44.85208849073388L490.4794909224438,43.59228626143886L498.42402209248394,29.560992518468993L500.85748209044687,33.94842835597228L503.4698729706579,44.547997895715525L501.78792267793324,46.28566188251716L492.16144121519756,47.15449700667523L486.25672210237826,54.365909093787195L488.40389268888975,59.97005753783742L494.4517565074493,63.92342379546608L499.24710415059235,57.58068130238098L503.9350932644156,54.1921384371235L508.9809441426769,54.67000794384512L531.0968011834193,69.44083136832342L526.3372397166968,61.92501347252983L511.5575488464383,51.6724732980656L518.213777664525,48.45775360640255L527.2676803042123,50.933954084001016L541.0811444105639,67.0079483621812L546.2343538180867,65.05296494983486L552.6758655775338,67.13828096544603L557.0059929269482,76.60924253062694L563.5906493921648,79.04219013307011L569.853230269393,84.77705996463192L572.1435455616447,89.3824000703462L573.7539235014992,100.07049087400082L577.4398996749369,105.24085956806084L582.8078261411574,105.1539620043477L584.9907829040603,108.19538916207966L590.5734264289495,109.36851790332003Z" style="display: block; stroke-width: 3;"></path>
<path class="child map-item shape" id="mapa-comuna-14" data-id="14" d="M586.6727331968141,117.88467769767158L588.4978281953372,117.36327439415618L600.9156314204738,122.36008698111982L622.6020543439372,128.92122404288966L631.4412399249559,132.8753442830639L646.3640755009837,144.47724341091816L657.8156519622426,158.29572151930188L668.0147122480266,173.67917707187007L679.0726407684269,168.55128580069868L684.9773598812462,170.37645909999264L689.5579904657206,175.5043762680143L688.3770466431743,182.9790977210214L694.9259169319412,182.50105858198367L701.9042213379871,192.67039116867818L708.2383745681145,205.75187657159404L699.5781198693148,205.53457228155457L684.7626428226067,195.45179692914826L683.4385542942327,199.53702545390115L672.953204596939,214.00953643245157L676.531822241057,219.13807281915797L694.7469860496931,233.00287035485962L680.5040878260334,258.9084320407419L675.4940231242508,254.38786465575686L660.3564704895834,254.5182648455957L646.3640755009837,278.8604581935506L630.9402334547776,300.55247350470745L625.1786590477277,317.07231702574063L598.8042470104701,316.63757461923524L585.9927958444168,309.94260765233776L572.4298349731544,299.72650116548175L522.1502570730809,259.08230114681646L523.3669870720478,253.25773164874408L527.0171770690649,247.3028584314743L539.5065526471299,233.17672699320246L532.8145376525936,225.65750382098486L525.0847235412512,219.31192278588424L536.6436585318006,205.18688568932703L506.94113208551425,186.67305784494965L511.1996870820003,181.71881408209447L529.9158573608729,168.3340038790193L535.1406391212367,161.81560696964152L544.9102652897418,163.33655573340366L545.2323408777593,159.77320012645214L535.8563626501127,152.16859528169152L535.1406391212367,144.1730690175027L539.8644144115679,139.21940778035787L547.5226561699819,135.83009973121807L552.7474379304331,130.96345656862832L560.3698935124557,126.31413545590476L559.4036667485489,122.22973447106779L569.065934387676,115.23421870937455L577.2251826163265,113.23552478264901Z" style="display: block; stroke-width: 3;"></path>
<path class="child map-item shape" id="mapa-comuna-3" data-id="3" d="M639.7794190357963,317.724431616778L666.2969757788233,317.8983290399774L675.2435198891617,323.6804660463822L687.2318889970193,325.37599746117485L707.7373680979072,324.85429463943L709.66982162575,340.15789065894205L711.7454198593623,375.4629785337311L712.1390678002208,405.37935151709826L714.035735151585,444.9092926213925L710.0276833901589,445.0832513268688L687.4823922321084,449.954129130143L652.5192978488922,454.7815818291274L640.2804255060037,458.434832210216L639.2426263891975,435.7330897957727L637.2028143320349,411.55426047494984L636.3797322738392,387.81187849934213L630.6539440432098,373.1149960573239L629.9740066908707,362.0275073600933L631.9780325715838,360.8100783691334L638.4195443310018,327.94104729854735Z" style="display: block; stroke-width: 3;"></path>
<path class="child map-item shape" id="mapa-comuna-5" data-id="5" d="M640.2804255060037,458.434832210216L641.2108660934609,469.3078200770833L644.8968422668695,479.6592089992482L642.1413066809182,492.09866591828177L598.374812893162,501.2328060113068L590.1082061351917,462.4360536414024L586.6727331968141,443.82205261226045L577.7619752629253,392.1166999755369L574.9706535004661,393.59513535682345L572.6803382082726,352.24471187827294L563.1612152748567,338.02752166913706L567.0619085069338,335.6797826477268L577.1178240869776,322.63706605602056L586.5653746675234,317.46358563908143L598.8042470104701,316.63757461923524L625.1786590477277,317.07231702574063L639.7794190357963,317.724431616778L638.4195443310018,327.94104729854735L631.9780325715838,360.8100783691334L629.9740066908707,362.0275073600933L630.6539440432098,373.1149960573239L636.3797322738392,387.81187849934213L637.2028143320349,411.55426047494984L639.2426263891975,435.7330897957727Z" style="display: block; stroke-width: 3;"></path>
<path class="child map-item shape" id="mapa-comuna-6" data-id="6" d="M586.6727331968141,443.82205261226045L497.85144326937734,459.65259055720526L485.43364004424075,428.38359800342005L469.68772241004626,386.81177580865915L458.05721506659756,358.46219119467423L473.19476770132314,345.94038413823L516.9254753126297,359.549174099433L542.1547297037905,350.679489200993L563.1612152748567,338.02752166913706L572.6803382082726,352.24471187827294L574.9706535004661,393.59513535682345L577.7619752629253,392.1166999755369Z" style="display: block; stroke-width: 3;"></path>
<path class="child map-item shape" id="mapa-comuna-7" data-id="7" d="M586.6727331968141,443.82205261226045L590.1082061351917,462.4360536414024L598.374812893162,501.2328060113068L566.704046742525,507.93132241649437L567.5271288006916,522.807693361101L557.4712132206769,527.5056221902196L573.5392064428597,543.2963315006637L559.2247358663008,557.3911023278779L546.4132847003057,569.0936608959746L528.5201964796288,551.9097370996024L521.5776782500325,548.2555399012927L507.6926417907234,548.995076821855L486.9008732783259,547.4290004318755L485.39785386782023,553.8673579735914L466.28803564808914,573.4876564252772L442.5618006674922,550.256643304223L456.9836297733418,527.2011249485076L449.5043188971176,520.8502410759393L434.6530556739599,506.45241848399746L427.28110332702636,485.835389239277L403.98430246373755,423.7304468556249L436.8002262604132,402.7702668061829L451.72306183647015,394.9431258351833L469.68772241004626,386.81177580865915L485.43364004424075,428.38359800342005L497.85144326937734,459.65259055720526Z" style="display: block; stroke-width: 3;"></path>
<path class="child map-item shape" id="mapa-comuna-8" data-id="8" d="M559.2247358663008,557.3911023278779L586.7085193732637,581.5797090935521L596.4065731888695,596.3285948375124L590.000847605872,601.8541439769033L582.5931090824888,611.0780839856016L540.1149176465988,672.5625445430051L533.4229026520916,674.912477254722L531.1683735362894,678.2633337376174L531.9556694179773,684.5299541629502L499.06817326840246,731.7507031330606L464.391368296725,781.1106184304517L461.56426035787445,784.4624628896709L388.41731571170385,717.2574094606098L315.5208743006806,650.500034713099L327.68817429072806,642.3629213307286L339.3544678106555,631.7457875845139L356.28132926739636,610.8170258344035L364.11850190802943,601.9411611761316L374.8543548404414,598.0254080039449L400.3698986431409,577.9687169155513L422.91518980119145,599.4176709257299L429.8934942072374,580.5355630602862L433.54368420425453,583.450478298706L440.30727155169006,576.5765368192806L451.8662065422395,587.5836074672407L466.28803564808914,573.4876564252772L485.39785386782023,553.8673579735914L486.9008732783259,547.4290004318755L507.6926417907234,548.995076821855L521.5776782500325,548.2555399012927L528.5201964796288,551.9097370996024L546.4132847003057,569.0936608959746Z" style="display: block; stroke-width: 3;"></path>
<path class="child map-item shape" id="mapa-comuna-9" data-id="9" d="M427.28110332702636,485.835389239277L434.6530556739599,506.45241848399746L449.5043188971176,520.8502410759393L456.9836297733418,527.2011249485076L442.5618006674922,550.256643304223L466.28803564808914,573.4876564252772L451.8662065422395,587.5836074672407L440.30727155169006,576.5765368192806L433.54368420425453,583.450478298706L429.8934942072374,580.5355630602862L422.91518980119145,599.4176709257299L400.3698986431409,577.9687169155513L374.8543548404414,598.0254080039449L364.11850190802943,601.9411611761316L356.28132926739636,610.8170258344035L339.3544678106555,631.7457875845139L327.68817429072806,642.3629213307286L315.5208743006806,650.500034713099L221.54637496572104,563.9166457633546L220.04335555515718,562.2199931097857L215.9279452644405,477.7454844666645L221.83266437723069,478.00644630516763L237.6143681878748,476.3101977291808L250.53317788318964,473.4831344920676L252.75192082257126,469.6992537507904L271.3965187484864,470.7865717394743L290.00533049801015,479.6592089992482L300.1686046073737,482.1383672374941L304.2840148981195,486.09635692983284L286.9635055005201,488.9235190114996L289.5401102042524,500.7108489180682L316.3439563588472,525.6786425963219L334.80962340257247,515.1954385923455L341.394279867789,521.4592250928981L401.3361254070478,487.2707138735277L410.2110971645452,495.708798408421L419.4439306863933,488.6625492757885Z" style="display: block; stroke-width: 3;"></path>
<path class="child map-item shape" id="mapa-comuna-10" data-id="10" d="M403.98430246373755,423.7304468556249L427.28110332702636,485.835389239277L419.4439306863933,488.6625492757885L410.2110971645452,495.708798408421L401.3361254070478,487.2707138735277L341.394279867789,521.4592250928981L334.80962340257247,515.1954385923455L316.3439563588472,525.6786425963219L289.5401102042524,500.7108489180682L286.9635055005201,488.9235190114996L304.2840148981195,486.09635692983284L300.1686046073737,482.1383672374941L290.00533049801015,479.6592089992482L271.3965187484864,470.7865717394743L252.75192082257126,469.6992537507904L250.53317788318964,473.4831344920676L237.6143681878748,476.3101977291808L221.83266437723069,478.00644630516763L215.9279452644405,477.7454844666645L211.776748797216,393.7690693291661L219.1129149676999,373.81069297672366L241.83713700796943,393.8560363468423L263.9172078722622,414.3373525724164L277.8738166844123,399.16106404724997L323.89483958797064,366.11462042829953L340.4280531038821,388.9859156285238L386.3417174781498,433.5151800531894Z" style="display: block; stroke-width: 3;"></path>
<path class="child map-item shape" id="mapa-comuna-11" data-id="11" d="M473.19476770132314,345.94038413823L458.05721506659756,358.46219119467423L469.68772241004626,386.81177580865915L451.72306183647015,394.9431258351833L436.8002262604132,402.7702668061829L403.98430246373755,423.7304468556249L386.3417174781498,433.5151800531894L340.4280531038821,388.9859156285238L323.89483958797064,366.11462042829953L277.8738166844123,399.16106404724997L263.9172078722622,414.3373525724164L241.83713700796943,393.8560363468423L219.1129149676999,373.81069297672366L268.9630587505235,244.9991746872547L272.61324874754064,247.0420633079193L312.1569737152022,300.1177509854315L311.90647048011306,302.29136881482555L334.8454095790221,312.4640741470794L383.7651127743302,316.68104883635533L400.3341124666913,324.98472027419484L405.0936739334138,330.02788094774587L417.5472633349709,349.5055766462465L435.8339994965063,334.50591886162874Z" style="display: block; stroke-width: 3;"></path>
<path class="child map-item shape" id="mapa-comuna-12" data-id="12" d="M312.1569737152022,300.1177509854315L272.61324874754064,247.0420633079193L268.9630587505235,244.9991746872547L322.6065372361045,106.89191724726697L410.6405312817951,59.70939754502615L438.4106042003259,104.50223094210378L416.04424392446526,119.62269414027105L428.81990891403984,139.6539367515652L442.5260144910426,158.29572151930188L444.4942541953351,162.07634058885742L419.8733648036723,181.50152424376574L438.8042521411262,208.66376666649012L406.34619010883034,231.09045285437605L364.6910807311069,260.42978955683066Z" style="display: block; stroke-width: 3;"></path>
<path class="child map-item shape" id="mapa-comuna-15" data-id="15" d="M598.8042470104701,316.63757461923524L586.5653746675234,317.46358563908143L577.1178240869776,322.63706605602056L567.0619085069338,335.6797826477268L563.1612152748567,338.02752166913706L542.1547297037905,350.679489200993L516.9254753126297,359.549174099433L473.19476770132314,345.94038413823L435.8339994965063,334.50591886162874L417.5472633349709,349.5055766462465L405.0936739334138,330.02788094774587L400.3341124666913,324.98472027419484L383.7651127743302,316.68104883635533L334.8454095790221,312.4640741470794L311.90647048011306,302.29136881482555L312.1569737152022,300.1177509854315L364.6910807311069,260.42978955683066L406.34619010883034,231.09045285437605L438.8042521411262,208.66376666649012L441.3808568449458,206.88186098632286L456.3036924210028,218.2253618662653L466.93218682403676,232.09012437591446L475.80715858153417,232.6986214389617L500.1059723851795,241.65233957304736L523.3669870720478,253.25773164874408L522.1502570730809,259.08230114681646L572.4298349731544,299.72650116548175L585.9927958444168,309.94260765233776Z" style="display: block; stroke-width: 3;"></path>
</g>
</g>
</svg>