<?xml version="1.0" encoding="utf-8"?>
<!-- Generator: Adobe Illustrator 16.0.0, SVG Export Plug-In . SVG Version: 6.00 Build 0)  -->
<!DOCTYPE svg PUBLIC "-//W3C//DTD SVG 1.1//EN" "http://www.w3.org/Graphics/SVG/1.1/DTD/svg11.dtd">
<svg version="1.1" id="Capa_1" xmlns="http://www.w3.org/2000/svg" xmlns:xlink="http://www.w3.org/1999/xlink" x="0px" y="0px"
	 width="130px" height="115px" viewBox="0 0 130 115" enable-background="new 0 0 130 115" xml:space="preserve">
<g id="Isolation_Mode_1_">
	<g>
		<path d="M41.686,45.373c-0.912-3.777-6.54-2.268-6.54-2.268s-5.695,1.236-4.784,5.014c0.059,0.223,0.195,0.791,0.195,0.791
			s1.494-1.535,5.395-2.48c3.902-0.947,5.927-0.266,5.927-0.266S41.753,45.634,41.686,45.373z"/>
		<path d="M56.5,53.312c0,0-1.93,2.958-7.49,4.292c-5.559,1.333-8.639-0.414-8.639-0.414s0.274,1.126,0.41,1.683
			c1.962,8.033,9.955,5.805,9.955,5.805S58.874,63.032,56.91,55C56.797,54.523,56.5,53.312,56.5,53.312z"/>
		<path d="M61.238,40.634c-0.919-3.779-6.55-2.271-6.55-2.271s-5.693,1.238-4.776,5.016c0.057,0.223,0.193,0.791,0.193,0.791
			s1.488-1.531,5.391-2.479c3.904-0.945,5.93-0.266,5.93-0.266S61.297,40.896,61.238,40.634z"/>
		<path d="M127.518,62.759c0,0-8.093-1.211-10.924-2.027c-2.837-0.805,3.834-6.404,0-7.683c-3.301-1.1-6.93-0.576-9.913,0.322
			c0.765-3.934,1.542-7.92,2.013-10.316l0.729-3.781l-3.355,1.893c-0.029,0.016-1.021,0.551-2.979,1.107
			c-4.448-0.354-11.558-0.756-19.465-2.043c-5.372-0.875-10.244-2.018-14.189-3.004c-1.107-5.162-2.938-13.705-3.803-17.738
			L64.82,15.73l-2.346,3.057c-0.02,0.021-0.723,0.904-2.294,2.186c-4.231,1.42-10.933,3.846-18.712,5.766
			c-7.449,1.84-14.25,2.812-18.686,3.512c-2.301-0.438-3.491-0.971-3.518-0.982l-3.52-1.709l1.025,3.775
			c1.936,7.129,5.648,20.83,5.85,21.664c0.102,0.416,0.215,0.824,0.336,1.232c-2.254-0.848-5.607-1.482-9.553-0.166
			c-3.842,1.281,2.83,6.878,0,7.689c-2.83,0.807-10.922,2.02-10.922,2.02l7.285,2.432l-5.264,4.854l12.946-2.426
			c0,0,6.13-1.457,4.046-5.666c-2.686-5.427,2.045-2.539,5.049-0.867c6.882,10.801,19.662,16.713,27.19,14.904l0.062-0.016
			c0,0,0,0,0.003,0c1.496-0.367,3.039-1.111,4.555-2.16c3.803,8.852,10.853,15.436,16.811,16.447l0.063,0.008l0,0
			c9.536,1.557,26.408-9.564,29.189-26.199c0.04-0.256,0.431-2.256,0.963-5.006c2.823-1.365,5.457-2.417,3.122,1.873
			c-2.547,4.686,4.048,5.666,4.048,5.666l12.945,2.428l-5.261-4.859L127.518,62.759z M77.094,53.812c0,0-0.084,0.541-0.128,0.805
			c-0.607,3.839-6.338,2.788-6.338,2.788s-0.271-0.041-0.685-0.133c0.302-1.092,0.554-2.206,0.751-3.338
			c0.158,0.029,0.304,0.064,0.468,0.088C75.127,54.652,77.094,53.812,77.094,53.812z M52.946,73.534l0.427,1.725l-0.469-1.715
			c-6.998,1.682-23.137-6.189-26.823-21.384c-0.201-0.836-3.438-12.781-5.024-18.617c3.907,0.9,11.217,1.67,21.896-0.92l0.299-0.074
			c10.493-2.592,16.556-6.568,19.585-9.135c1.273,5.945,3.888,18.139,4.056,18.852C70.572,57.432,59.901,71.815,52.946,73.534z
			 M85.753,78.286c-0.079,0.479-0.273,1.709-0.273,1.709s-2.171-2.791-7.815-3.67c-5.646-0.887-8.578,1.105-8.578,1.105
			s0.184-1.141,0.272-1.711c1.311-8.166,9.455-6.586,9.455-6.586S87.057,70.118,85.753,78.286z M96.835,57.77
			c-0.611,3.835-6.341,2.786-6.341,2.786s-5.776-0.775-5.167-4.613c0.033-0.225,0.126-0.803,0.126-0.803s1.609,1.407,5.574,2.034
			c3.968,0.633,5.936-0.209,5.936-0.209S96.874,57.502,96.835,57.77z"/>
	</g>
</g>
</svg>
