<?xml version="1.0" encoding="utf-8"?>
<!-- Generator: Adobe Illustrator 16.0.0, SVG Export Plug-In . SVG Version: 6.00 Build 0)  -->
<!DOCTYPE svg PUBLIC "-//W3C//DTD SVG 1.1//EN" "http://www.w3.org/Graphics/SVG/1.1/DTD/svg11.dtd">
<svg version="1.1" id="Capa_1" xmlns="http://www.w3.org/2000/svg" xmlns:xlink="http://www.w3.org/1999/xlink" x="0px" y="0px"
	 width="130px" height="115px" viewBox="0 0 130 115" enable-background="new 0 0 130 115" xml:space="preserve">
<g id="Iv2rbz.tif">
	<g>
		<path fill-rule="evenodd" clip-rule="evenodd" d="M95.924,81.05c-2.402-1.686-4.912-2.58-7.988-2.805
			c-6.35-0.467-11.014-5.873-11.666-12.618c-0.074-0.773-0.092-1.551-0.15-2.559c-4.133-1.553-5.732-4.576-5.018-9.095
			c0.414-2.608-0.152-5.386,0.352-7.964c1.266-6.459,5.404-10.618,11.42-13.052c1.424-0.576,2.844-1.208,4.168-1.98
			c6.971-4.067,13.902-4.081,20.877-0.004c1.324,0.774,2.73,1.452,4.17,1.974c6.859,2.49,11.598,8.789,11.914,16.113
			c0.113,2.667,0.098,5.347-0.025,8.013c-0.148,3.226-2.457,4.755-4.625,5.745c-0.793,2.971-1.178,5.755-2.271,8.226
			c-1.883,4.25-5.461,6.906-10.047,7.193c-3.088,0.193-5.592,1.125-7.992,2.812C98.002,81.05,96.963,81.05,95.924,81.05z
			 M97.373,30.453c-1.189,0.178-2.408,0.252-3.568,0.548c-8.828,2.256-14.902,10.005-15.018,19.103
			c-0.02,1.463,0.285,2.938-1.994,3.154c-1.711,0.162-3.09,1.151-3.209,3.159c-0.127,2.104,1.229,3.314,2.926,3.77
			c1.918,0.516,2.311,1.486,2.316,3.307c0.021,7.96,4.479,12.269,12.381,12.431c1.273,0.027,2.658,0.777,3.764,1.527
			c1.748,1.188,3.543,1.514,4.9-0.074c1.285-1.506,2.713-1.531,4.365-1.531c7.086,0.006,11.756-4.439,11.891-11.536
			c0.041-2.182,0.238-3.631,2.746-4.389c1.088-0.33,2.203-2.213,2.338-3.492c0.096-0.923-1.305-2.757-2.223-2.887
			c-2.764-0.391-2.814-1.96-2.852-4.134C115.967,39.34,107.145,30.551,97.373,30.453z M78.516,38.666
			c-3.51,3.213-5.27,7.438-4.588,12.798c0.938-0.561,1.959-1.24,2.193-2.126C77.057,45.805,77.744,42.207,78.516,38.666z
			 M116.262,38.521c0.832,3.319,1.875,6.561,2.387,9.885c0.279,1.824,0.697,2.817,2.756,2.765
			C121.682,46.02,119.947,41.845,116.262,38.521z"/>
		<path fill-rule="evenodd" clip-rule="evenodd" fill="#020202" d="M97.373,30.453c9.771,0.099,18.594,8.887,18.764,18.954
			c0.037,2.174,0.088,3.744,2.852,4.134c0.918,0.13,2.318,1.964,2.223,2.887c-0.135,1.279-1.25,3.162-2.338,3.492
			c-2.508,0.758-2.705,2.207-2.746,4.389c-0.135,7.097-4.805,11.542-11.891,11.536c-1.652,0-3.08,0.025-4.365,1.531
			c-1.357,1.588-3.152,1.262-4.9,0.074c-1.105-0.75-2.49-1.5-3.764-1.527c-7.902-0.162-12.359-4.471-12.381-12.431
			c-0.006-1.82-0.398-2.791-2.316-3.307c-1.697-0.455-3.053-1.666-2.926-3.77c0.119-2.008,1.498-2.997,3.209-3.159
			c2.279-0.216,1.975-1.69,1.994-3.154c0.115-9.098,6.189-16.846,15.018-19.103C94.965,30.705,96.184,30.63,97.373,30.453z
			 M89.623,51.887c-1.381,0-2.764-0.059-4.141,0.015c-1.787,0.095-2.82,1.177-2.492,2.891c0.486,2.541-1.775,5.871,2.004,7.496
			c0.441,0.189,1.023,0.059,1.541,0.059c1.984,0.006,3.969,0.012,5.953,0c2.914-0.021,3.582-0.691,3.695-3.676
			C96.436,52.065,96.25,51.875,89.623,51.887z M105.291,62.348c1.295,0,2.588-0.006,3.883,0.002
			c2.512,0.014,2.873-1.572,2.873-3.631c0-6.045-0.195-6.696-2.791-6.816c-2.238-0.104-4.484-0.044-6.729-0.023
			c-2.951,0.027-3.666,0.715-3.742,3.65C98.582,63.523,99.5,62.336,105.291,62.348z"/>
		<path fill-rule="evenodd" clip-rule="evenodd" fill="#FFFFFF" d="M79.648,36.898c-0.771,3.541-2.592,8.907-3.527,12.44
			c-0.234,0.886-1.256,1.565-2.193,2.126C73.246,46.104,76.139,40.11,79.648,36.898z"/>
		<path fill-rule="evenodd" clip-rule="evenodd" fill="#FFFFFF" d="M114.451,36.378c3.686,3.324,7.23,9.642,6.953,14.792
			c-2.059,0.052-2.477-0.94-2.756-2.765C118.137,45.082,115.283,39.697,114.451,36.378z"/>
		<path fill-rule="evenodd" clip-rule="evenodd" fill="#FFFFFF" d="M89.623,51.887c6.627-0.012,6.812,0.179,6.561,6.785
			c-0.113,2.984-0.781,3.654-3.695,3.676c-1.984,0.012-3.969,0.006-5.953,0c-0.518,0-1.1,0.131-1.541-0.059
			c-3.779-1.625-1.518-4.956-2.004-7.496c-0.328-1.714,0.705-2.796,2.492-2.891C86.859,51.828,88.242,51.887,89.623,51.887z
			 M85.711,54.612c0,1.818,0,3.405,0,5.011c2.643,0,5.109,0,7.713,0c0-1.71,0-3.292,0-5.011
			C90.805,54.612,88.342,54.612,85.711,54.612z"/>
		<path fill-rule="evenodd" clip-rule="evenodd" fill="#FFFFFF" d="M105.291,62.35c-5.791-0.014-6.709,1.174-6.506-6.821
			c0.076-2.935,0.791-3.623,3.742-3.65c2.244-0.021,4.49-0.081,6.729,0.023c2.596,0.121,2.791,0.771,2.791,6.816
			c0,2.059-0.361,3.645-2.873,3.631C107.879,62.342,106.586,62.348,105.291,62.35z M101.5,59.602c2.648,0,5.18,0,7.785,0
			c0-1.721,0-3.309,0-4.935c-2.676,0-5.207,0-7.785,0C101.5,56.392,101.5,57.922,101.5,59.602z"/>
		<path fill-rule="evenodd" clip-rule="evenodd" fill="#020202" d="M85.711,54.612c2.631,0,5.094,0,7.713,0c0,1.72,0,3.301,0,5.011
			c-2.604,0-5.07,0-7.713,0C85.711,58.017,85.711,56.43,85.711,54.612z"/>
		<path fill-rule="evenodd" clip-rule="evenodd" fill="#020202" d="M101.5,59.602c0-1.679,0-3.209,0-4.935c2.578,0,5.109,0,7.785,0
			c0,1.626,0,3.214,0,4.935C106.68,59.602,104.148,59.602,101.5,59.602z"/>
	</g>
</g>
<g>
	<g id="e12w1X.tif">
		<g>
			<path fill-rule="evenodd" clip-rule="evenodd" fill="#020202" d="M36.261,82.15c-0.249-0.064-0.502-0.116-0.746-0.194
				c-0.588-0.187-1.109-0.497-1.575-0.901c-0.08-0.068-0.161-0.114-0.266-0.135c-1.538-0.314-2.984-0.874-4.375-1.6
				c-0.471-0.246-1.01-0.354-1.508-0.553c-2.191-0.874-4.24-2.017-6.193-3.333c-1.965-1.324-3.784-2.825-5.423-4.539
				c-2.418-2.526-4.328-5.375-5.46-8.71c-0.502-1.476-0.827-2.99-0.949-4.547c-0.251-3.188,0.126-6.292,1.263-9.29
				c1.343-3.538,3.603-6.387,6.569-8.702c0.808-0.63,1.654-1.206,2.535-1.728c0.085-0.051,0.181-0.083,0.152-0.225
				c-0.351-1.715,0.12-3.265,0.989-4.72c0.815-1.366,1.955-2.427,3.259-3.316c2.056-1.4,4.337-2.26,6.753-2.787
				c2.221-0.485,4.468-0.642,6.738-0.537c2.499,0.115,4.929,0.563,7.271,1.45c2.078,0.786,3.984,1.856,5.555,3.458
				c1.135,1.156,1.973,2.489,2.316,4.093c0.15,0.7,0.229,1.407,0.076,2.119c-0.028,0.131,0.025,0.188,0.135,0.249
				c2.161,1.214,4.128,2.679,5.806,4.515c2.283,2.5,3.753,5.407,4.34,8.749c0.114,0.66,0.193,1.323,0.23,1.991
				c0.003,0.045-0.024,0.105,0.041,0.132c0,0.771,0,1.542,0,2.313c-0.063,0.029-0.038,0.088-0.039,0.133
				c-0.038,0.734-0.116,1.463-0.233,2.188c-0.464,2.895-1.433,5.616-2.905,8.15c-2.987,5.145-7.138,9.099-12.359,11.932
				c-1.135,0.617-2.316,1.138-3.592,1.403c-0.183,0.038-0.374,0.036-0.546,0.128c-1.359,0.741-2.794,1.272-4.311,1.583
				c-0.104,0.021-0.186,0.066-0.265,0.135c-0.415,0.356-0.877,0.637-1.389,0.838c-0.316,0.125-0.653,0.161-0.976,0.258
				C36.873,82.15,36.567,82.15,36.261,82.15z M48.787,75.406c-0.025,0.017-0.051,0.032-0.036,0.087
				c-0.011-0.005-0.02-0.011-0.029-0.014c-0.002,0-0.011,0.01-0.01,0.014c0.004,0.009,0.011,0.016,0.018,0.023
				c0.006-0.008,0.014-0.017,0.012-0.042c0.051,0.051,0.07-0.009,0.101-0.029c0.039-0.019,0.079-0.036,0.116-0.06
				c3.191-1.976,5.938-4.445,8.205-7.438c2.709-3.577,4.443-7.548,4.815-12.061c0.173-2.104,0.038-4.181-0.522-6.223
				c-0.819-2.976-2.444-5.448-4.713-7.516c-1.579-1.438-3.36-2.576-5.259-3.54c-0.14-0.071-0.183-0.132-0.143-0.295
				c0.192-0.772,0.312-1.55,0.173-2.351c-0.193-1.118-0.689-2.088-1.407-2.951c-1.178-1.416-2.684-2.385-4.338-3.14
				c-2.36-1.077-4.854-1.608-7.432-1.777c-2.23-0.145-4.444,0.001-6.632,0.475c-2.026,0.438-3.958,1.127-5.727,2.228
				c-1.267,0.788-2.386,1.737-3.182,3.019c-0.661,1.066-1.008,2.214-0.848,3.482c0.006,0.049,0.007,0.107,0.033,0.146
				c0.201,0.295,0.396,0.587,0.217,0.967c-0.011,0.022-0.005,0.059,0.006,0.083c0.058,0.144-0.023,0.2-0.138,0.263
				c-1.463,0.796-2.857,1.697-4.133,2.774c-2.195,1.852-3.91,4.063-5.031,6.718c-0.795,1.883-1.232,3.85-1.396,5.883
				c-0.169,2.096-0.047,4.166,0.479,6.207c0.77,2.987,2.242,5.603,4.204,7.957c1.794,2.154,3.886,3.979,6.199,5.553
				c0.665,0.453,1.333,0.903,2.046,1.279c0.005,0.021,0.019,0.035,0.041,0.023c0.004-0.003-0.007-0.032-0.011-0.05"/>
			<path fill-rule="evenodd" clip-rule="evenodd" fill="#FEFEFE" d="M48.842,75.445c-0.031,0.021-0.05,0.08-0.101,0.029
				c-0.005-0.036,0.02-0.052,0.045-0.068C48.805,75.42,48.824,75.432,48.842,75.445z"/>
			<path fill-rule="evenodd" clip-rule="evenodd" fill="#FEFEFE" d="M24.465,75.104c0.004,0.018,0.015,0.047,0.011,0.05
				c-0.022,0.012-0.036-0.002-0.041-0.023C24.444,75.119,24.454,75.11,24.465,75.104z"/>
			<path fill-rule="evenodd" clip-rule="evenodd" fill="#FEFEFE" d="M48.751,75.493c-0.008,0.007-0.015,0.016-0.021,0.023
				c-0.007-0.008-0.014-0.015-0.018-0.023c-0.001-0.004,0.007-0.014,0.01-0.014C48.731,75.482,48.74,75.488,48.751,75.493z"/>
			<path fill-rule="evenodd" clip-rule="evenodd" fill="#020202" d="M25.527,36.753c0,0.021,0.005,0.044-0.001,0.064
				c-0.059,0.209-0.602,0.653-0.823,0.672c-0.163,0.014-0.284-0.095-0.418-0.157c-0.122-0.055-0.302-0.068-0.348-0.195
				c-0.081-0.223-0.108-0.463-0.154-0.697c-0.012-0.058,0.042-0.088,0.073-0.125c0.123-0.143,0.244-0.287,0.37-0.426
				c0.125-0.137,0.387-0.187,0.557-0.112c0.046,0.021,0.089,0.055,0.137,0.063C25.439,35.936,25.469,36.353,25.527,36.753z"/>
			<path fill-rule="evenodd" clip-rule="evenodd" fill="#020202" d="M48.961,37.421c-0.394,0.018-0.816-0.456-0.77-0.895
				c0.025-0.236,0.202-0.463,0.374-0.624c0.181-0.169,0.469-0.084,0.71-0.111c0.311-0.035,0.681,0.411,0.68,0.876
				c0,0.25-0.201,0.472-0.367,0.646C49.428,37.483,49.144,37.36,48.961,37.421z"/>
			<path fill-rule="evenodd" clip-rule="evenodd" fill="#020202" d="M43.633,34.229c0.193,0.05,0.347,0.092,0.491,0.234
				c0.325,0.322,0.377,0.657,0.202,1.065c-0.05,0.116-0.098,0.193-0.22,0.232c-0.144,0.047-0.282,0.111-0.424,0.167
				c-0.231,0.09-0.475,0.02-0.629-0.179c-0.407-0.521-0.407-0.521-0.192-1.135c0.014-0.04,0.032-0.095,0.063-0.107
				C43.163,34.407,43.406,34.317,43.633,34.229z"/>
			<path fill-rule="evenodd" clip-rule="evenodd" fill="#020202" d="M37.652,34.112c-0.048,0.17,0.061,0.45-0.112,0.578
				c-0.228,0.168-0.448,0.405-0.778,0.388c-0.27-0.014-0.824-0.458-0.791-0.651c0.041-0.232-0.065-0.531,0.119-0.685
				c0.211-0.176,0.441-0.395,0.754-0.388C37.195,33.361,37.668,33.795,37.652,34.112z"/>
			<path fill-rule="evenodd" clip-rule="evenodd" fill="#020202" d="M30.17,35.088c-0.027,0.126,0.085,0.311-0.045,0.399
				c-0.25,0.169-0.421,0.466-0.779,0.47c-0.332,0.005-0.524-0.239-0.734-0.415c-0.185-0.153-0.067-0.436-0.09-0.659
				c-0.023-0.244,0.532-0.649,0.872-0.66c0.248-0.009,0.367,0.216,0.561,0.296C30.231,34.633,30.151,34.87,30.17,35.088z"/>
		</g>
	</g>
	<path fill-rule="evenodd" clip-rule="evenodd" fill="#FFFFFF" d="M20.114,51.962"/>
	<path fill-rule="evenodd" clip-rule="evenodd" fill="#020202" d="M19.437,54.188c0,0,11.413-2.66,16.635-9.43
		c0,0,5.754,6.287,16.731,9.381c0,0,1.257,15.572-4.643,21.955c0,0-17.118,8.607-23.985,0.146
		C24.176,76.239,19.92,74.304,19.437,54.188z"/>
	<path fill-rule="evenodd" clip-rule="evenodd" fill="#FFFFFF" d="M34.962,59.963c1.362-0.676,2.042-0.676,3.559-0.005
		c0.183-0.636,0.567-1.085,1.209-1.292c0.174-0.055,0.353-0.078,0.536-0.078c2.297,0,4.595-0.003,6.893,0.002
		c1.042,0.002,1.795,0.764,1.798,1.807c0.003,0.851,0.004,1.702,0,2.553c-0.014,2.421-1.95,4.36-4.368,4.363
		c-0.777,0-1.556,0.048-2.332-0.039c-1.875-0.212-3.527-1.872-3.732-3.748c-0.023-0.217-0.04-0.434-0.04-0.652
		c0-0.795-0.569-1.479-1.351-1.626c-0.912-0.171-1.695,0.237-2.085,1.081c-0.087,0.189-0.05,0.386-0.051,0.578
		c-0.005,1.064-0.333,2.015-1.018,2.829c-0.784,0.934-1.791,1.483-3.008,1.559c-0.89,0.057-1.789,0.073-2.679-0.023
		c-1.875-0.203-3.538-1.868-3.725-3.747c-0.11-1.109-0.059-2.225-0.03-3.336c0.022-0.867,0.795-1.587,1.665-1.592
		c2.378-0.013,4.756-0.012,7.133-0.001c0.699,0.003,1.337,0.511,1.567,1.188C34.923,59.838,34.94,59.895,34.962,59.963z
		 M43.733,60.334c-1.105,0-2.21,0.004-3.315-0.004c-0.155-0.001-0.19,0.039-0.189,0.19c0.009,0.814,0,1.628,0.005,2.442
		c0.009,1.449,1.156,2.595,2.607,2.607c0.588,0.003,1.178,0.003,1.767,0c1.449-0.013,2.596-1.159,2.605-2.609
		c0.005-0.814-0.004-1.629,0.005-2.443c0.001-0.154-0.041-0.188-0.192-0.188C45.928,60.338,44.831,60.334,43.733,60.334z
		 M29.767,60.334c-1.098,0-2.196,0.002-3.294-0.003c-0.147-0.001-0.211,0.014-0.209,0.192c0.012,0.822,0,1.643,0.007,2.465
		c0.013,1.413,1.154,2.562,2.565,2.58c0.604,0.009,1.207,0.007,1.811,0.002c1.448-0.013,2.593-1.161,2.602-2.612
		c0.005-0.813-0.004-1.628,0.005-2.442c0.002-0.16-0.049-0.186-0.195-0.186C31.962,60.336,30.865,60.334,29.767,60.334z"/>
</g>
</svg>
