<?xml version="1.0" encoding="utf-8"?>
<!-- Generator: Adobe Illustrator 16.0.0, SVG Export Plug-In . SVG Version: 6.00 Build 0)  -->
<!DOCTYPE svg PUBLIC "-//W3C//DTD SVG 1.1//EN" "http://www.w3.org/Graphics/SVG/1.1/DTD/svg11.dtd">
<svg version="1.1" id="Capa_1" xmlns="http://www.w3.org/2000/svg" xmlns:xlink="http://www.w3.org/1999/xlink" x="0px" y="0px"
	 width="130px" height="115px" viewBox="0 0 130 115" enable-background="new 0 0 130 115" xml:space="preserve">
<g>
	<g id="_x39_l0L5M.tif">
		<g>
			<path fill="#010202" d="M14.037,64.016c0.233-0.945,0.415-1.91,0.704-2.841c2.027-6.532,8.069-10.96,14.904-10.913
				c2.609,0.02,5.226-0.193,7.805,0.518c6.59,1.823,11.296,7.779,11.429,14.617c0.045,2.35,0.008,4.701,0.008,7.045
				c-1.409,0.379-1.706,0.271-2.475-0.82c-2.926-4.16-5.792-8.366-8.809-12.461c-3.379-4.584-9.853-5.159-14.107-1.378
				c-3.513,3.124-4.278,8.498-1.591,12.406c4.127,6.008,8.325,11.969,12.584,17.883c1.855,2.578,4.564,3.732,7.718,3.793
				c1.875,0.037,3.754,0.006,5.628,0.002c0.322,0,0.642,0,1.011,0c0,3.65,0,7.211,0,10.904c-0.507,0-0.999,0-1.493,0
				c-10.93,0-21.859-0.002-32.785-0.002c-0.18,0-0.357,0.018-0.534,0.027C14.037,89.869,14.037,76.943,14.037,64.016z"/>
			<path fill="#010202" d="M115.443,65.625c-4.319,9.059-8.636,18.117-12.956,27.172c-1.076,2.252-2.182,4.49-3.238,6.752
				c-1.041,2.236-2.773,3.324-5.229,3.32c-8.13-0.004-28.278,0-36.41-0.004c-0.801,0-1.61,0.021-2.409-0.045
				c-2.757-0.23-4.869-2.549-4.824-5.252c0.047-2.746,2.163-5.072,4.923-5.145c3.897-0.105,19.818-0.049,23.721-0.053
				c3.693-0.004,7.386-0.021,11.079,0.02c0.694,0.008,1.046-0.189,1.352-0.83c4.59-9.625,9.213-19.236,13.815-28.86
				c0.981-2.052,2.497-3.298,4.834-3.355c2.305-0.056,4.212,1.256,5.033,3.421c0.093,0.244,0.208,0.477,0.312,0.717
				C115.443,64.193,115.443,64.908,115.443,65.625z"/>
			<path fill="#010202" d="M48.154,18.73c8.904-0.037,16.247,7.222,16.259,16.116c0.013,9.155-7.286,15.996-15.615,16.313
				C39.997,51.494,32.042,44.575,31.95,35C31.867,26.07,39.183,18.768,48.154,18.73z"/>
			<path fill="#010202" d="M55.854,88.818c-4.406,0-8.814-0.018-13.221,0.006c-2.647,0.014-4.679-1.035-6.2-3.217
				c-3.895-5.592-7.835-11.146-11.748-16.723c-1.485-2.115-1.792-4.387-0.679-6.741c1.116-2.353,3.063-3.636,5.638-3.765
				c2.473-0.131,4.415,0.973,5.835,3c2.219,3.166,4.447,6.328,6.674,9.49c0.958,1.361,1.94,2.707,2.866,4.094
				c0.332,0.496,0.684,0.693,1.298,0.691c7.83-0.025,15.66-0.025,23.49-0.006c2.884,0.006,5.438,1.979,6.229,4.734
				c0.81,2.818-0.327,5.84-2.789,7.393c-1.166,0.734-2.454,1.039-3.819,1.043C64.905,88.82,60.378,88.818,55.854,88.818z"/>
		</g>
	</g>
	<g id="NO8shD.tif">
		<g>
			<path fill="#010202" d="M98.956,69.34c-0.587,0.791-1.061,0.854-1.835,0.225c-3.096-2.512-6.183-5.036-9.295-7.528
				c-0.301-0.242-0.757-0.411-1.14-0.417c-6.188-0.025-7.004-0.015-13.193-0.018c-1.148,0-1.416-0.268-1.416-1.438
				c0-6.472,0-8.921,0-15.394c0-1.188,0.242-1.436,1.413-1.436c9.819-0.001,14.269,0.003,24.086-0.008
				c0.593-0.001,1.076,0.106,1.38,0.655c0,6.976,0,9.926,0,16.902c-0.265,0.564-0.706,0.776-1.326,0.729
				c-0.551-0.042-1.104-0.01-1.781-0.01c1.075,2.482,2.092,4.824,3.106,7.164C98.956,68.957,98.956,69.146,98.956,69.34z"/>
			<path fill="#FFFFFF" d="M98.956,68.766c-1.014-2.34-2.031-4.682-3.106-7.164c0.677,0,1.229-0.032,1.781,0.01
				c0.621,0.048,1.062-0.162,1.326-0.729C98.956,63.512,98.956,66.139,98.956,68.766z"/>
		</g>
	</g>
</g>
</svg>
