<?xml version="1.0" encoding="utf-8"?>
<!-- Generator: Adobe Illustrator 16.0.0, SVG Export Plug-In . SVG Version: 6.00 Build 0)  -->
<!DOCTYPE svg PUBLIC "-//W3C//DTD SVG 1.1//EN" "http://www.w3.org/Graphics/SVG/1.1/DTD/svg11.dtd">
<svg version="1.1" id="Capa_1" xmlns="http://www.w3.org/2000/svg" xmlns:xlink="http://www.w3.org/1999/xlink" x="0px" y="0px"
	 width="130px" height="115px" viewBox="0 0 130 115" enable-background="new 0 0 130 115" xml:space="preserve">
<g id="N61SrI.tif">
	<g>
		<path fill-rule="evenodd" clip-rule="evenodd" d="M115.089,56.811c-0.119,0.601-0.172,1.222-0.369,1.795
			c-0.569,1.653-1.9,2.479-3.513,2.568c-1.505,0.083-2.812-0.636-3.672-1.961c-2.574-3.958-5.135-7.926-7.718-11.878
			c-0.221-0.333-0.556-0.637-0.909-0.828c-2.134-1.168-4.288-2.298-6.52-3.484c-0.945,2.752-1.895,5.501-2.836,8.255
			c-1.451,4.26-2.88,8.531-4.354,12.782c-2.008,5.778-4.025,11.553-6.083,17.313c-1.998,5.595-4.045,11.17-6.077,16.753
			c-0.43,1.185-0.832,2.379-1.312,3.544c-0.642,1.566-2.104,3.104-4.624,3.15c-2.863,0.05-4.465-1.582-5.014-3.761
			c-0.333-1.328,0.083-2.584,0.519-3.803c1.242-3.474,2.541-6.928,3.795-10.397c0.896-2.48,1.895-4.938,2.6-7.474
			c1.093-3.93,1.975-7.914,2.944-11.878c0.062-0.257,0.129-0.511,0.086-0.824c-1.194,1.675-2.384,3.353-3.586,5.022
			c-1.468,2.041-2.946,4.072-4.425,6.108c-0.588,0.815-1.088,1.724-1.801,2.414c-1.918,1.856-5.51,1.402-7.079-0.769
			c-1.402-1.941-1.205-3.879-0.256-5.84c1.119-2.309,2.424-4.525,3.482-6.856c1.592-3.5,3.04-7.062,4.544-10.6
			c1.27-2.986,2.531-5.973,3.792-8.961c0.593-1.404,1.186-2.811,1.646-4.362c-0.854,0.544-1.715,1.073-2.555,1.635
			c-1.578,1.056-3.166,2.093-4.697,3.209c-0.929,0.676-1.788,1.459-2.634,2.241c-2.061,1.908-4.082,3.863-6.156,5.757
			c-0.886,0.814-1.785,1.682-2.827,2.25c-1.835,1-3.639,0.443-4.748-0.827c-1.634-1.865-1.188-4.283,0.083-5.499
			c2.205-2.105,4.479-4.134,6.723-6.198c0.786-0.721,1.601-1.416,2.351-2.174c2.423-2.457,5.474-4.049,8.257-6.009
			c2.558-1.801,5.147-3.567,7.814-5.199c1.012-0.621,2.261-1.036,3.442-1.162c1.795-0.191,3.646-0.248,5.427-0.006
			c3.127,0.423,6.242,0.992,9.306,1.734c2.055,0.497,4.105,1.217,5.996,2.159c3.53,1.758,6.958,3.717,10.388,5.67
			c0.62,0.352,1.112,1.021,1.519,1.639c2.807,4.274,5.58,8.567,8.347,12.868c0.3,0.462,0.473,1.005,0.702,1.51
			C115.089,56.565,115.089,56.688,115.089,56.811z"/>
		<path fill-rule="evenodd" clip-rule="evenodd" d="M33.416,93.868c0.366-1.151,0.579-2.383,1.125-3.44
			c1.481-2.857,3.802-4.668,7.045-5.234c3.482-0.611,6.456,0.359,8.926,2.837c2.074,2.081,2.997,4.694,2.783,7.578
			c-0.346,4.652-3.799,8.51-8.383,9.103c-5.703,0.735-9.858-2.53-11.271-7.621c-0.093-0.333-0.153-0.673-0.226-1.01
			C33.416,95.342,33.416,94.605,33.416,93.868z"/>
	</g>
</g>
<circle fill-rule="evenodd" clip-rule="evenodd" cx="86.261" cy="20.586" r="9.629"/>
</svg>
