<?xml version="1.0" encoding="utf-8"?>
<!-- Generator: Adobe Illustrator 16.0.0, SVG Export Plug-In . SVG Version: 6.00 Build 0)  -->
<!DOCTYPE svg PUBLIC "-//W3C//DTD SVG 1.1//EN" "http://www.w3.org/Graphics/SVG/1.1/DTD/svg11.dtd">
<svg version="1.1" id="Capa_1" xmlns="http://www.w3.org/2000/svg" xmlns:xlink="http://www.w3.org/1999/xlink" x="0px" y="0px"
	 width="130px" height="115px" viewBox="0 0 130 115" enable-background="new 0 0 130 115" xml:space="preserve">
<g id="e1j8hM.tif">
	<g>
		<path fill-rule="evenodd" clip-rule="evenodd" d="M113.618,76.75c-1.855,0.62-3.676,1.401-5.576,1.821
			c-2.604,0.572-5.266,0.869-8.15,1.324c0.607-8.342-2.428-14.278-10.324-17.312c0.141-0.185,0.253-0.361,0.392-0.514
			c1.803-1.971,2.89-4.266,3.084-6.945c0.041-0.583,0.196-0.867,0.855-0.853c2.813,0.064,5.636-0.027,8.442,0.139
			c5.574,0.329,10.263,4.769,11.09,10.339c0.028,0.185,0.123,0.358,0.188,0.537C113.618,69.109,113.618,72.932,113.618,76.75z"/>
		<path fill-rule="evenodd" clip-rule="evenodd" d="M16.088,65.482c0.135-0.521,0.274-1.04,0.404-1.562
			c1.336-5.343,6.21-9.227,11.726-9.299c2.745-0.037,5.493-0.005,8.337-0.005c0.167,3.193,1.34,5.921,3.633,8.243
			c-7.891,3.02-10.997,8.943-10.382,17.124c-4.865-0.2-9.426-1.008-13.718-3.038C16.088,73.123,16.088,69.302,16.088,65.482z"/>
		<path fill-rule="evenodd" clip-rule="evenodd" d="M81.806,90.312c0,1.715-0.025,3.432,0.015,5.146
			c0.015,0.618-0.214,0.909-0.763,1.155c-3.161,1.412-6.499,2.107-9.916,2.466c-7.253,0.76-14.3-0.337-21.246-2.366
			c-0.698-0.206-0.979-0.492-0.959-1.263c0.096-3.621-0.036-7.256,0.221-10.863c0.378-5.304,5.374-10.224,10.673-10.516
			c3.676-0.203,7.382-0.214,11.056-0.008c5.739,0.326,10.674,5.616,10.863,11.396c0.054,1.615,0.009,3.235,0.009,4.854
			C81.774,90.312,81.789,90.312,81.806,90.312z"/>
		<path fill-rule="evenodd" clip-rule="evenodd" d="M57.151,72.23c-7.842,3.081-11.003,8.871-10.339,17.113
			c-1.861-0.209-3.601-0.283-5.288-0.626c-2.906-0.586-5.78-1.318-8.657-2.04c-0.306-0.078-0.75-0.495-0.753-0.757
			c-0.028-3.429-0.167-6.874,0.069-10.289c0.459-6.579,5.145-11.194,11.721-11.612c2.967-0.189,5.955-0.045,8.934-0.045
			c0.217,0,0.435,0.08,0.685,0.129C53.702,67.259,54.898,69.946,57.151,72.23z"/>
		<path fill-rule="evenodd" clip-rule="evenodd" d="M73.645,72.238c2.305-2.297,3.456-5.035,3.657-8.184
			c3.119,0,6.185-0.029,9.246,0.021c0.763,0.011,1.534,0.219,2.276,0.428c5.103,1.434,8.73,6.041,8.854,11.337
			c0.078,3.268,0.051,6.536,0.011,9.805c-0.005,0.334-0.352,0.826-0.666,0.973c-2.712,1.263-5.591,1.969-8.547,2.354
			c-1.407,0.183-2.824,0.292-4.415,0.452C84.65,81.24,81.598,75.271,73.645,72.238z"/>
		<path fill-rule="evenodd" clip-rule="evenodd" d="M64.942,45.553c-5.756,0.024-10.523-4.744-10.484-10.486
			c0.039-5.766,4.681-10.39,10.443-10.401c5.792-0.011,10.431,4.589,10.453,10.363C75.376,40.849,70.745,45.529,64.942,45.553z"/>
		<path fill-rule="evenodd" clip-rule="evenodd" d="M65.375,73.275c-5.28-0.016-9.65-4.394-9.627-9.646
			c0.024-5.232,4.438-9.608,9.691-9.603c5.236,0.008,9.647,4.445,9.614,9.667C75.019,68.98,70.664,73.295,65.375,73.275z"/>
		<path fill-rule="evenodd" clip-rule="evenodd" d="M48.531,63.344c-5.457,0.016-9.819-4.49-9.632-9.898
			c0.196-5.683,5.178-9.919,10.695-9.307c4.727,0.524,8.609,4.811,8.573,9.5c-0.003,0.315-0.157,0.722-0.384,0.922
			c-2.109,1.861-3.49,4.124-4.041,6.897c-0.052,0.259-0.334,0.543-0.583,0.685C51.728,62.953,50.188,63.387,48.531,63.344z"/>
		<path fill-rule="evenodd" clip-rule="evenodd" d="M97.237,53.619c-0.419,0-0.852,0.064-1.257-0.016
			c-0.787-0.155-1.571-0.353-2.334-0.602c-1.03-0.337-0.677-1.356-0.886-2.062c-0.789-2.669-2.233-4.865-4.497-6.475
			c-0.596-0.425-0.734-0.88-0.667-1.541c0.554-5.458,6.181-9.502,11.566-8.304c4.464,0.995,7.658,4.956,7.65,9.486
			C106.802,49.322,102.475,53.644,97.237,53.619z"/>
		<path fill-rule="evenodd" clip-rule="evenodd" d="M32.568,34.746c4.754,0.027,8.813,3.568,9.514,8.301
			c0.108,0.736-0.009,1.273-0.726,1.787c-2.581,1.859-4.06,4.442-4.676,7.555c-0.068,0.355-0.404,0.818-0.726,0.938
			c-3.75,1.391-7.181,0.693-10.036-2.027c-2.728-2.6-3.707-5.862-2.621-9.559C24.555,37.463,28.246,34.725,32.568,34.746z"/>
		<path fill-rule="evenodd" clip-rule="evenodd" d="M90.946,53.742c-0.007,6.485-6.381,11.129-12.586,9.17
			c-0.764-0.24-1.156-0.59-1.323-1.497c-0.565-3.078-2.184-5.565-4.757-7.378c-0.45-0.318-0.645-0.626-0.577-1.19
			c0.599-5.042,4.719-8.753,9.727-8.732C86.631,44.133,90.951,48.506,90.946,53.742z"/>
		<path fill-rule="evenodd" clip-rule="evenodd" d="M38.224,34.011c1.548-6.255,9.739-8.962,14.95-4.669
			c0.207,0.171,0.344,0.679,0.25,0.934c-1.5,4.067-1.141,7.924,1.268,11.545c0.348,0.521,0.179,0.858-0.201,1.142
			c-0.281,0.206-0.757,0.498-0.975,0.393c-3.098-1.468-6.212-1.599-9.384-0.281c-0.082,0.035-0.186,0.019-0.071,0.011
			c-0.71-1.725-1.185-3.503-2.127-4.982C41,36.643,39.593,35.484,38.224,34.011z"/>
		<path fill-rule="evenodd" clip-rule="evenodd" d="M85.623,42.927c-4.505-1.113-5.38-1.075-9.617,0.396
			c-0.028-0.056-0.062-0.203-0.155-0.281c-0.863-0.749-0.84-1.441-0.27-2.479c1.643-2.998,1.88-6.205,0.771-9.454
			c-0.242-0.708-0.104-1.099,0.426-1.564c4.968-4.359,12.918-2.273,15.178,4.1C88.308,35.621,86.148,38.699,85.623,42.927z"/>
		<path fill-rule="evenodd" clip-rule="evenodd" d="M59.87,53.154c-0.024-2.481-0.76-4.581-2.198-6.726
			c4.897-0.31,9.579-0.198,14.192-0.091c-0.751,2.131-1.459,4.135-2.192,6.21C66.544,51.328,63.263,51.469,59.87,53.154z"/>
	</g>
</g>
</svg>
