<?xml version="1.0" encoding="utf-8"?>
<!-- Generator: Adobe Illustrator 16.0.0, SVG Export Plug-In . SVG Version: 6.00 Build 0)  -->
<!DOCTYPE svg PUBLIC "-//W3C//DTD SVG 1.1//EN" "http://www.w3.org/Graphics/SVG/1.1/DTD/svg11.dtd">
<svg version="1.1" id="Capa_1" xmlns="http://www.w3.org/2000/svg" xmlns:xlink="http://www.w3.org/1999/xlink" x="0px" y="0px"
	 width="130px" height="115px" viewBox="0 0 130 115" enable-background="new 0 0 130 115" xml:space="preserve">
<g id="_x36_1TyJq.tif">
	<g>
		<path fill-rule="evenodd" clip-rule="evenodd" d="M28.348,13.189c0.048,0.368,0.137,0.737,0.137,1.104
			c0.02,26.326,0.031,52.652,0.043,78.978c0.001,1.541,0,3.08,0,4.826c24.441,0,48.79,0,73.192,0c0,1.357,0,2.508,0,3.768
			c-0.394,0-0.762,0-1.13,0c-24.985,0-49.971,0-74.956,0.002c-0.319,0-0.64,0.014-0.96,0.021c0-29.566,0-59.133,0-88.7
			C25.901,13.189,27.124,13.189,28.348,13.189z"/>
		<path fill-rule="evenodd" clip-rule="evenodd" d="M105.326,13.189c0,5.556,0,11.112,0,16.553c-2.179-2.148-4.463-4.402-6.89-6.795
			c-9.149,9.289-18.205,18.482-27.414,27.832c-4.783-4.891-9.344-9.555-13.92-14.236c-6.189,6.209-12.236,12.271-18.328,18.381
			c-1.162-1.293-2.241-2.494-3.237-3.604c6.871-6.941,13.994-14.137,21.08-21.295c4.734,4.688,9.465,9.373,14.074,13.938
			c8.125-8.051,16.167-16.018,24.278-24.054c-2.148-2.104-4.288-4.197-6.427-6.29c0.033-0.085,0.067-0.169,0.101-0.255
			c0.297,0,0.595,0.002,0.892,0c3.644-0.013,7.287-0.022,10.931-0.045c0.279-0.002,0.558-0.084,0.836-0.13
			C102.644,13.189,103.984,13.189,105.326,13.189z"/>
		<path fill-rule="evenodd" clip-rule="evenodd" d="M101.747,31.916c0,19.562,0,38.912,0,58.332c-6.386,0-12.744,0-19.206,0
			c0-0.369,0-0.711,0-1.053c0-12.389,0.005-24.777-0.011-37.166c-0.001-0.656,0.166-1.135,0.645-1.611
			c5.952-5.922,11.882-11.865,17.818-17.801C101.192,32.418,101.406,32.232,101.747,31.916z"/>
		<path fill-rule="evenodd" clip-rule="evenodd" d="M78.582,90.295c-6.404,0-12.725,0-19.119,0c0-13.869,0-27.715,0-41.574
			c3.786,3.789,7.559,7.562,11.393,11.398c2.628-2.643,5.107-5.137,7.727-7.771C78.582,65.109,78.582,77.666,78.582,90.295z"/>
		<path fill-rule="evenodd" clip-rule="evenodd" d="M36.266,90.275c0-1.996,0-3.889,0-5.781c0-5.332-0.01-10.664,0.02-15.996
			c0.003-0.412,0.167-0.938,0.448-1.221c6.055-6.1,12.138-12.172,18.216-18.25c0.118-0.117,0.248-0.223,0.473-0.424
			c0,13.959,0,27.795,0,41.672C49.042,90.275,42.705,90.275,36.266,90.275z"/>
	</g>
</g>
</svg>
