<?xml version="1.0" encoding="utf-8"?>
<!-- Generator: Adobe Illustrator 16.0.0, SVG Export Plug-In . SVG Version: 6.00 Build 0)  -->
<!DOCTYPE svg PUBLIC "-//W3C//DTD SVG 1.1//EN" "http://www.w3.org/Graphics/SVG/1.1/DTD/svg11.dtd">
<svg version="1.1" id="Capa_1" xmlns="http://www.w3.org/2000/svg" xmlns:xlink="http://www.w3.org/1999/xlink" x="0px" y="0px"
	 width="130px" height="115px" viewBox="0 0 130 115" enable-background="new 0 0 130 115" xml:space="preserve">
<g>
	<g>
		<g>
			<path d="M20.266,78.345c0,0-11.124-1.357-10.561,16.857h21.13C31.393,76.987,20.266,78.345,20.266,78.345z"/>
			<path d="M44.683,78.345c0,0-11.127-1.357-10.563,16.857h21.129C55.81,76.987,44.683,78.345,44.683,78.345z"/>
			<path d="M69.1,78.345c0,0-11.129-1.357-10.568,16.857H79.66C80.225,76.987,69.1,78.345,69.1,78.345z"/>
		</g>
		<circle cx="25.861" cy="74.183" r="2.72"/>
		<circle cx="14.983" cy="74.183" r="2.72"/>
		<circle cx="74.485" cy="74.183" r="2.719"/>
		<circle cx="63.608" cy="74.183" r="2.72"/>
	</g>
	<g>
		<defs>
			<rect id="SVGID_1_" x="70.685" y="19.875" width="49.631" height="60.879"/>
		</defs>
		<clipPath id="SVGID_2_">
			<use xlink:href="#SVGID_1_"  overflow="visible"/>
		</clipPath>
		<g clip-path="url(#SVGID_2_)">
			<path d="M117.843,55.186c0.508-0.66,0.693-1.508,0.517-2.324c-0.177-0.809-0.71-1.502-1.444-1.891
				c-3.359-1.759-6.718-3.525-10.074-5.287c-2.729-1.429-5.708-3.551-8.855-3.551c-3.123,0-5.691,1.793-7.337,4.198
				c-1.566,2.276-6.878,8.678-6.878,8.678l-1.041,1.315h-7.361c-0.073,0-0.139,0-0.211,0.008c-1.008,0.073-1.874,0.679-2.309,1.542
				c-0.193,0.387-0.307,0.815-0.307,1.276c0,1.558,1.268,2.823,2.823,2.823h8.414h0.321c0.864,0,1.681-0.395,2.214-1.072
				l3.163-3.997v3.504l-6.685,18.969c-0.281,0.79,0.308,1.614,1.139,1.614h5.539v13.805c0,2.09,1.702,3.794,3.792,3.794
				c2.092,0,3.794-1.695,3.794-3.794V80.992h1.833v13.805c0,2.09,1.704,3.794,3.793,3.794c2.092,0,3.795-1.695,3.795-3.794V80.992
				h5.537c0.831,0,1.414-0.824,1.139-1.614l-4.835-13.721c0.03,0,0.064,0,0.095,0c0.85,0,1.689-0.38,2.245-1.106L117.843,55.186z
				 M110.586,54.291l-4.827,6.118l0,0v-8.646L110.586,54.291z"/>
			<path d="M87.774,39.509c0.469,1.511,1.654,1.964,2.913,1.964c1.945,0,4.086-1.084,4.086-1.084
				c-1.01-0.588-1.526-1.75-1.776-2.937c1.057,1.751,2.89,2.906,4.963,2.906c2.076,0,3.908-1.155,4.966-2.906
				c-0.249,1.177-0.768,2.349-1.775,2.937c0,0,2.138,1.084,4.084,1.084c1.268,0,2.446-0.461,2.914-1.964
				c0.072-0.216-0.025-0.458-0.233-0.572c-0.705-0.38-2.244-1.469-2.244-3.713c0-2.906,0.725-11.705-7.711-11.705
				c-8.435,0-7.708,8.799-7.708,11.705c0,2.244-1.541,3.333-2.244,3.713C87.797,39.052,87.702,39.293,87.774,39.509z"/>
		</g>
	</g>
	<circle cx="68.905" cy="70.847" r="5.354"/>
	<circle cx="20.059" cy="70.847" r="5.354"/>
	<circle cx="45.347" cy="71.279" r="5.354"/>
	<rect x="16.57" y="20.956" fill="none" stroke="#000000" stroke-miterlimit="10" width="57.491" height="37.608"/>
	<rect x="70.461" y="51.349" transform="matrix(0.7477 -0.6641 0.6641 0.7477 -19.0449 61.4417)" width="1.729" height="8.863"/>
</g>
</svg>
