<?xml version="1.0" encoding="utf-8"?>
<!-- Generator: Adobe Illustrator 16.0.0, SVG Export Plug-In . SVG Version: 6.00 Build 0)  -->
<!DOCTYPE svg PUBLIC "-//W3C//DTD SVG 1.1//EN" "http://www.w3.org/Graphics/SVG/1.1/DTD/svg11.dtd">
<svg version="1.1" id="Capa_1" xmlns="http://www.w3.org/2000/svg" xmlns:xlink="http://www.w3.org/1999/xlink" x="0px" y="0px"
	 width="130px" height="115px" viewBox="0 0 130 115" enable-background="new 0 0 130 115" xml:space="preserve">
<g>
	<path d="M112.703,84.213c0,1.695-1.426,3.07-3.188,3.07H20.485c-1.761,0-3.188-1.375-3.188-3.07V35.375
		c0-1.695,1.428-3.07,3.188-3.07h89.031c1.762,0,3.188,1.375,3.188,3.07V84.213z"/>
	<rect x="32.731" y="32.304" fill="#FFFFFF" width="13.559" height="54.979"/>
	<rect x="85.295" y="32.304" fill="#FFFFFF" width="13.559" height="54.979"/>
	<line fill="none" stroke="#5B5C5C" stroke-miterlimit="10" x1="34.857" y1="32.304" x2="44.167" y2="32.304"/>
	<line fill="none" stroke="#5B5C5C" stroke-miterlimit="10" x1="87.42" y1="32.304" x2="96.729" y2="32.304"/>
	
		<line fill="none" stroke="#5B5C5C" stroke-width="2.6028" stroke-miterlimit="10" x1="57.159" y1="29.236" x2="72.842" y2="29.236"/>
	<path fill="#FFFFFF" d="M59.344,65.025v4.541c0,2.545,2.523,4.609,5.638,4.609c3.114,0,5.637-2.064,5.637-4.609v-4.541H59.344z"/>
	<path fill="none" stroke="#FFFFFF" stroke-width="0.8676" stroke-miterlimit="10" d="M74.441,53.208
		c0-5.021-4.227-9.092-9.441-9.092c-5.214,0-9.44,4.07-9.44,9.092c0,1.533,0.395,2.979,1.09,4.242c0,0.002,0.001,0.006,0.001,0.006
		c0.146,0.262,0.303,0.518,0.475,0.768c2.43,4.092,3.487,7.094,3.487,7.094h8.817c0,0,1.012-2.996,3.443-7.09
		C73.863,56.791,74.441,55.064,74.441,53.208"/>
	
		<line fill="none" stroke="#5B5C5C" stroke-width="0.8676" stroke-miterlimit="10" x1="59.344" y1="66.857" x2="70.619" y2="66.857"/>
	
		<line fill="none" stroke="#5B5C5C" stroke-width="0.8676" stroke-miterlimit="10" x1="59.344" y1="68.889" x2="70.619" y2="68.889"/>
</g>
</svg>
