<?xml version="1.0" encoding="utf-8"?>
<!-- Generator: Adobe Illustrator 16.0.0, SVG Export Plug-In . SVG Version: 6.00 Build 0)  -->
<!DOCTYPE svg PUBLIC "-//W3C//DTD SVG 1.1//EN" "http://www.w3.org/Graphics/SVG/1.1/DTD/svg11.dtd">
<svg version="1.1" id="Capa_1" xmlns="http://www.w3.org/2000/svg" xmlns:xlink="http://www.w3.org/1999/xlink" x="0px" y="0px"
	 width="130px" height="115px" viewBox="0 0 130 115" enable-background="new 0 0 130 115" xml:space="preserve">
<g>
	<g id="MmWeaQ.tif">
		<g>
			<g enable-background="new    ">
				<g>
					<defs>
						<polygon id="SVGID_1_" points="21.963,105.644 20.279,89.996 112.021,89.766 113.703,105.412 						"/>
					</defs>
					<clipPath id="SVGID_2_">
						<use xlink:href="#SVGID_1_"  overflow="visible"/>
					</clipPath>
					<g clip-path="url(#SVGID_2_)">
						<g>
							<g>
								<g>
									<path fill="#010202" d="M110.68,99.053c-0.019,0-0.036,0-0.057,0c-2.969-0.054-5.928-0.099-8.889-0.147
										c-0.074,0-0.137-0.02-0.251-0.039c-0.008-0.84-0.023-1.678-0.034-2.544c0.162-0.006,0.33-0.021,0.499-0.021
										c0.018,0,0.033,0,0.051,0c2.797,0.042,5.585,0.092,8.372,0.124c0.546,0.005,0.747,0.075,0.737,0.328
										c-0.024,0.676,0.004,1.355,0.018,2.034C111.135,98.944,111.092,99.051,110.68,99.053 M91.686,98.731
										c-3.199-0.048-6.37-0.097-9.584-0.148c-0.019-0.869-0.027-1.714-0.038-2.577c3.207,0.049,6.361,0.098,9.583,0.149
										C91.656,97,91.672,97.85,91.686,98.731 M71.891,98.446c-0.019,0-0.038,0-0.058,0c-2.939-0.055-5.885-0.098-8.83-0.146
										c-0.067,0-0.137-0.02-0.28-0.039c-0.01-0.853-0.023-1.685-0.035-2.554c0.205-0.003,0.4-0.008,0.589-0.01
										c0.046,0,0.09,0,0.134,0c2.721,0.04,5.442,0.089,8.163,0.123c0.561,0.005,0.791,0.063,0.783,0.336
										c-0.033,0.666,0.002,1.336,0.021,2.006C72.381,98.33,72.352,98.446,71.891,98.446 M52.998,98.119
										c-3.215-0.051-6.398-0.1-9.644-0.151c-0.011-0.855-0.026-1.7-0.037-2.566c3.223,0.052,6.398,0.099,9.637,0.151
										C52.965,96.425,52.98,97.256,52.998,98.119 M33.005,97.835c-0.031,0-0.062,0-0.091,0c-2.743-0.042-5.488-0.096-8.23-0.121
										c-0.604-0.009-0.764-0.095-0.754-0.351c0.025-0.666-0.001-1.336-0.021-2.006c-0.001-0.147-0.007-0.272,0.427-0.273
										c0.017,0,0.034,0,0.052,0c3.021,0.055,6.033,0.097,9.15,0.146c0.014,0.886,0.029,1.726,0.041,2.595
										C33.379,97.827,33.191,97.835,33.005,97.835 M31.504,89.969c-3.089,0.008-6.183,0.022-9.283,0.043
										c0.058,3.731-0.406,11.064-0.348,14.799c9.455,0.364,18.897,0.445,28.335,0.423c5.644-0.015,11.285-0.066,16.924-0.12
										c5.653-0.052,11.306-0.104,16.959-0.118c9.398-0.022,18.799,0.057,28.209,0.418c-0.082-5.123-0.156-10.193-0.242-15.292
										c-3.097,0.021-6.187,0.035-9.271,0.043c-11.908,0.029-23.739-0.035-35.565-0.097
										C55.341,90.002,43.461,89.938,31.504,89.969"/>
								</g>
							</g>
						</g>
					</g>
				</g>
			</g>
		</g>
	</g>
	<g>
		<path fill="#020303" d="M26.909,91.396c0.869-0.06,1.26-2.073,1.584-2.834c2.834-6.602,4.237-13.511,4.555-20.659
			c0.26-6.346-0.167-12.645-1.381-18.877c-0.049-0.265-0.113-0.511-0.154-0.683c-1.56,0.553-3.028,1.303-4.588,1.579
			c-7.396,1.311-13.421-5.786-10.985-12.89c0.268-0.792,0.219-1.279-0.292-1.946c-3.151-4.028-2.705-9.739,1.016-13.24
			c0.593-0.548,0.837-1.047,0.82-1.858c-0.143-6.391,4.627-10.829,10.97-10.325c0.482,0.032,1.136-0.26,1.462-0.625
			c4.084-4.632,10.174-4.995,14.786-0.89c0.326,0.289,1.072,0.431,1.471,0.259c7.499-3.04,14.733,2.397,13.975,10.508
			c-0.036,0.46,0.259,1.13,0.625,1.422c5.602,4.333,5.577,11.913-0.097,16.21c-0.52,0.394-0.91,0.675-0.78,1.516
			c0.576,4.063-0.844,7.396-4.205,9.706c-3.321,2.286-6.894,2.318-10.466,0.451c-0.229-0.121-0.475-0.226-0.958-0.451
			c-0.438,2.583-0.951,5.01-1.238,7.465c-1.324,11.021-0.208,21.78,3.341,32.295c0.365,1.096,0.878,3.858,1.957,3.79"/>
		<path fill="#020303" d="M105.56,80.532c-0.813,0.073-1.438-0.01-2.178,0.063c0,3.127,0,6.211,0,9.302
			c0,0.548,0.008,1.091,0.008,1.642c0.009,1.828,0.082,1.385-1.664,1.436c-1.111,0.047-1.592,0.089-1.567-1.062
			c0.065-3.719,0.018-7.451,0.018-11.287c-0.545,0-0.999,0-1.649,0c0,2.824,0.024,5.634-0.008,8.443
			c-0.017,0.504-0.13,1.404-0.331,1.441c-0.822,0.154-1.699,0.118-2.536-0.011c-0.153-0.034-0.276-0.793-0.276-1.218
			c-0.022-2.86-0.015-5.717-0.015-8.678c-11.319,0-22.525,0-33.912,0c0,3.325,0,6.618,0,9.874c-0.292,0.089-0.419,0.159-0.544,0.165
			c-2.644,0.262-2.677,0.221-2.644-2.395c0.017-2.537,0-5.073,0-7.674c-0.561,0-0.938,0-1.509,0c0,2.713-0.006,5.381,0,8.057
			c0,1.085-0.043,2.176,0.048,3.269c0.114,1.43-0.706,1.461-1.787,1.485c-1.088,0.024-1.53-0.257-1.502-1.436
			c0.081-3.316,0.024-6.648,0.024-9.978c0-0.433-0.032-0.877-0.057-1.393c-0.521-0.052-0.69-0.037-1.485-0.052
			c0-0.972,0.089-1.518,0.243-2.229c1.688-2.429,3.576-4.837,3.576-4.837s2.663,0.029,4.967,0.029
			c13.565,0,27.127,0.017,40.686-0.029c0.497,0,1.262,0,1.262,0s0.584,0.764,0.795,1.301c0.559,1.412,1.307,2.765,1.9,4.152
			C105.583,79.307,105.511,79.933,105.56,80.532z"/>
	</g>
	<rect x="55.846" y="61.305" fill="#010202" width="46.881" height="12.364"/>
</g>
</svg>
