<?xml version="1.0" encoding="utf-8"?>
<!-- Generator: Adobe Illustrator 16.0.0, SVG Export Plug-In . SVG Version: 6.00 Build 0)  -->
<!DOCTYPE svg PUBLIC "-//W3C//DTD SVG 1.1//EN" "http://www.w3.org/Graphics/SVG/1.1/DTD/svg11.dtd">
<svg version="1.1" id="Capa_1" xmlns="http://www.w3.org/2000/svg" xmlns:xlink="http://www.w3.org/1999/xlink" x="0px" y="0px"
	 width="130px" height="115px" viewBox="0 0 130 115" enable-background="new 0 0 130 115" xml:space="preserve">
<path fill="none" d="M74.23,33.054V17.779H39.1v67.209h17.469c-1.681-6.297,0.012-13.297,5.037-18.121
	c3.557-3.416,8.232-5.244,13.167-5.143c4.933,0.098,9.53,2.113,12.946,5.67c0.986,1.029,1.837,2.152,2.551,3.348V33.054H74.23z"/>
<polygon fill="none" points="60.675,63.092 60.675,70.727 68.695,70.727 "/>
<path d="M39.102,84.988V17.779h35.13v15.274h16.038v37.688c1.757,2.939,2.667,6.314,2.599,9.824c-0.067,3.223-0.954,6.299-2.551,9
	h4.532V29.782L77.436,13.197H34.518v76.369l37.466,0.172c-0.908-1.502-1.59-3.1-2.032-4.75H39.102z M78.812,20.836l8.021,7.636
	h-8.021V20.836z"/>
<path d="M94.444,93.359c-0.401-0.455-1.197-0.42-1.76,0.08l-1.917,1.697c-0.568,0.502-0.7,1.281-0.297,1.738
	c0.398,0.455,0.731,0.824,0.731,0.824l3.975-3.514C95.177,94.186,94.85,93.812,94.444,93.359z"/>
<path d="M104.845,105.195l-7.972-9.016c-0.503-0.562-0.913-1.025-0.913-1.025l-3.972,3.518c0,0,0.409,0.463,0.909,1.029l7.977,9.008
	c0.499,0.564,1.374,0.621,1.941,0.121l1.914-1.695C105.297,106.629,105.35,105.756,104.845,105.195z"/>
<path id="light-bulb-2-icon" fill="#000100" d="M67.5,62.184h-7.305c-0.513,0-0.93,0.416-0.93,0.928s0.417,0.926,0.93,0.926h7.307
	c0.513,0,0.928-0.414,0.928-0.926S68.015,62.184,67.5,62.184z M67.336,65.271H60.36c-0.512,0-0.925,0.416-0.925,0.926
	c0,0.514,0.413,0.93,0.925,0.93h6.976c0.511,0,0.926-0.416,0.926-0.93C68.262,65.688,67.847,65.271,67.336,65.271z M60.408,68.316
	c1.806,1.67,1.994,2.006,2.714,2.006h1.389c0.703,0,0.877-0.312,2.777-2.006H60.408z M74.407,46.095
	c0,6.282-5.402,9.799-5.402,14.754h-2.459c0.003-6.108,5.355-9.324,5.355-14.754c0-10.162-16.109-10.179-16.109,0
	c0,5.425,5.261,8.502,5.385,14.754h-2.486c0-4.955-5.402-8.472-5.402-14.754C53.289,32.601,74.407,32.586,74.407,46.095z"/>
<g>
	<path fill="none" d="M80.389,73.615c-2.923-0.059-5.698,1.023-7.81,3.049c-2.108,2.029-3.302,4.756-3.362,7.682
		s1.023,5.697,3.051,7.807c2.027,2.113,4.756,3.309,7.676,3.367c2.929,0.059,5.702-1.023,7.812-3.053
		c4.357-4.184,4.496-11.131,0.312-15.488C86.043,74.869,83.314,73.676,80.389,73.615z"/>
	<path d="M95.309,73.773c-0.572-0.959-1.254-1.859-2.047-2.684c-2.738-2.854-6.425-4.471-10.38-4.547
		c-3.957-0.082-7.706,1.385-10.56,4.125c-4.028,3.865-5.387,9.48-4.038,14.527c0.353,1.326,0.9,2.607,1.628,3.811
		c0.557,0.922,1.21,1.799,1.985,2.605c2.739,2.854,6.429,4.467,10.384,4.549c3.958,0.082,7.706-1.385,10.56-4.127
		c0.99-0.951,1.826-2.016,2.506-3.164c1.279-2.166,1.991-4.633,2.045-7.219C97.446,78.838,96.717,76.131,95.309,73.773z"/>
</g>
<path fill="#FFFFFF" d="M90.167,89.254c-2.109,2.027-4.883,3.109-7.812,3.049c-2.919-0.059-5.647-1.254-7.676-3.365
	c-2.026-2.109-3.111-4.881-3.05-7.809c0.061-2.926,1.254-5.652,3.362-7.68c2.111-2.023,4.887-3.109,7.81-3.051
	c2.926,0.061,5.653,1.256,7.68,3.363C94.663,78.119,94.524,85.066,90.167,89.254z"/>
</svg>
