<?xml version="1.0" encoding="utf-8"?>
<!-- Generator: Adobe Illustrator 16.0.0, SVG Export Plug-In . SVG Version: 6.00 Build 0)  -->
<!DOCTYPE svg PUBLIC "-//W3C//DTD SVG 1.1//EN" "http://www.w3.org/Graphics/SVG/1.1/DTD/svg11.dtd">
<svg version="1.1" id="Capa_1" xmlns="http://www.w3.org/2000/svg" xmlns:xlink="http://www.w3.org/1999/xlink" x="0px" y="0px"
	 width="130px" height="115px" viewBox="0 0 130 115" enable-background="new 0 0 130 115" xml:space="preserve">
<g>
	<g id="pqObzx.tif_2_">
		<g>
			<path fill="#1D1D1B" d="M69.562,34.462c0-0.195,0-0.39,0-0.583c0.014-0.021,0.034-0.042,0.041-0.065
				c0.691-2.298,1.379-4.6,2.075-6.897c0.415-1.375,1.675-2.299,3.114-2.301c0.963-0.002,1.924-0.002,2.887-0.002
				c1.523,0,2.708,0.804,3.274,2.227c0.25,0.628,0.495,1.261,0.742,1.891c0.374,0.949,0.746,1.899,1.137,2.891
				c0.304-0.76,0.592-1.477,0.878-2.194c0.497-1.241,0.973-2.491,1.49-3.725c0.472-1.118,1.332-1.647,2.561-1.628
				c1.562,0.026,3.125,0.006,4.688,0.006c1.512,0.001,2.734,0.923,3.154,2.378c0.05,0.177,0.088,0.355,0.133,0.532
				c0,2.738,0,5.476,0,8.213c-0.02,0.037-0.044,0.072-0.058,0.11c-0.199,0.582-0.77,0.868-1.354,0.684
				c-0.482-0.152-0.722-0.521-0.723-1.132c-0.002-2.198,0-4.396,0-6.595c0-0.104,0-0.206,0-0.314c-0.188,0-0.344,0-0.518,0
				c0,0.121,0,0.226,0,0.331c0,6.216,0,12.431,0,18.648c0,0.121,0.002,0.247-0.005,0.37c-0.033,0.746-0.53,1.324-1.196,1.403
				c-0.804,0.095-1.468-0.339-1.665-1.104c-0.051-0.2-0.058-0.419-0.058-0.627c-0.005-3.532-0.004-7.065-0.004-10.598
				c0-0.11,0-0.223,0-0.363c-0.15,0.008-0.266,0.013-0.393,0.019c0,0.148,0,0.264,0,0.377c0,3.515,0,7.028-0.001,10.544
				c0,0.166-0.002,0.336-0.018,0.501c-0.059,0.662-0.616,1.212-1.262,1.255c-0.782,0.051-1.386-0.37-1.529-1.085
				c-0.04-0.206-0.05-0.421-0.05-0.633c-0.003-6.232-0.003-12.467-0.003-18.701c0-0.111,0-0.224,0-0.324
				c-0.233-0.086-0.282,0.049-0.343,0.197c-0.902,2.199-1.807,4.396-2.715,6.593c-0.212,0.518-0.556,0.741-1.082,0.711
				c-0.454-0.027-0.817-0.339-0.957-0.82c-0.026-0.093-0.057-0.184-0.092-0.274c-0.764-1.961-1.527-3.919-2.291-5.879
				c-0.185-0.476-0.185-0.476-0.686-0.448c-0.015,0-0.029,0.014-0.058,0.029c1.078,3.7,2.156,7.404,3.247,11.147
				c-1.038,0-2.029,0-3.041,0c0,0.125,0,0.22,0,0.316c0,1.314,0,2.631,0,3.946c0,1.368,0.004,2.737-0.002,4.106
				c-0.003,0.763-0.642,1.251-1.383,1.071c-0.528-0.126-0.837-0.51-0.838-1.07c-0.004-2.684-0.003-5.368-0.003-8.053
				c0-0.103,0-0.206,0-0.308c-0.235,0-0.433,0-0.651,0c0,0.124,0,0.229,0,0.333c0,2.579,0,5.157-0.002,7.735
				c0,0.157-0.013,0.316-0.033,0.475c-0.052,0.391-0.272,0.664-0.627,0.823c-0.804,0.361-1.648-0.18-1.649-1.062
				c-0.003-2.666-0.001-5.333-0.001-7.999c0-0.103,0-0.206,0-0.337c-1.001,0-1.967,0-2.961,0c1.062-3.737,2.115-7.436,3.17-11.141
				c-0.487-0.047-0.489-0.048-0.608,0.364c-0.559,1.917-1.112,3.836-1.677,5.751c-0.062,0.217-0.148,0.44-0.278,0.621
				c-0.443,0.611-1.346,0.517-1.68-0.162C69.631,34.578,69.595,34.52,69.562,34.462z"/>
			<path fill-rule="evenodd" clip-rule="evenodd" fill="#1D1D1B" d="M90.385,18.459c0.245,0.091,0.502,0.157,0.734,0.273
				c1.01,0.502,1.535,1.648,1.279,2.761c-0.253,1.095-1.218,1.879-2.345,1.896c-1.29,0.023-2.333-0.876-2.519-2.171
				c-0.171-1.202,0.663-2.393,1.888-2.699c0.057-0.014,0.111-0.04,0.167-0.061C89.855,18.459,90.12,18.459,90.385,18.459z"/>
			<path fill-rule="evenodd" clip-rule="evenodd" fill="#1D1D1B" d="M78.729,21.567c-0.002,1.329-1.082,2.403-2.409,2.401
				c-1.318-0.003-2.408-1.093-2.408-2.411c-0.001-1.334,1.086-2.41,2.431-2.407C77.673,19.154,78.731,20.227,78.729,21.567z"/>
		</g>
	</g>
	<g>
		<path d="M82.945,8.983c-11.397,0-20.633,9.236-20.633,20.633s20.633,42.958,20.633,42.958s20.632-31.562,20.632-42.958
			S94.34,8.983,82.945,8.983z M82.946,46.599c-8.663,0-15.687-7.021-15.687-15.684c0-8.662,7.023-15.685,15.687-15.685
			c8.661,0,15.682,7.022,15.682,15.685C98.628,39.579,91.607,46.599,82.946,46.599z"/>
		<g>
			<path d="M93.22,79.191H70.214v-15.34H24.202v40.727h30.675V86.859h7.669v17.719H93.22V79.191z M39.54,94.527h-7.669v-7.668h7.669
				V94.527z M39.54,79.191h-7.669v-7.67h7.669V79.191z M62.546,79.191h-7.669v-7.67h7.669V79.191z M85.552,94.527h-7.67v-7.668h7.67
				V94.527z"/>
		</g>
	</g>
</g>
</svg>
