<?xml version="1.0" encoding="utf-8"?>
<!-- Generator: Adobe Illustrator 16.0.0, SVG Export Plug-In . SVG Version: 6.00 Build 0)  -->
<!DOCTYPE svg PUBLIC "-//W3C//DTD SVG 1.1//EN" "http://www.w3.org/Graphics/SVG/1.1/DTD/svg11.dtd">
<svg version="1.1" id="Capa_1" xmlns="http://www.w3.org/2000/svg" xmlns:xlink="http://www.w3.org/1999/xlink" x="0px" y="0px"
	 width="130px" height="115px" viewBox="0 0 130 115" enable-background="new 0 0 130 115" xml:space="preserve">
<g>
	<defs>
		<rect id="SVGID_1_" x="-15.612" y="8.705" width="177.636" height="91.614"/>
	</defs>
	<clipPath id="SVGID_2_">
		<use xlink:href="#SVGID_1_"  overflow="visible"/>
	</clipPath>
	<g id="auAinT.tif" clip-path="url(#SVGID_2_)">
		<g>
			<path fill-rule="evenodd" clip-rule="evenodd" d="M126.817,90.188c-0.349,0.633-0.621,1.326-1.056,1.893
				c-1.082,1.398-2.564,2.112-4.32,1.921c-2.064-0.225-3.527-1.372-4.245-3.355c-1.58-4.352-3.141-8.71-4.713-13.063
				c-1.291-3.584-2.589-7.162-3.885-10.742c-0.112-0.313-0.236-0.622-0.63-0.864c0.421,2.312,0.82,4.63,1.269,6.938
				c1.747,9.051,3.521,18.095,5.265,27.147c0.369,1.915-0.905,3.388-2.896,3.421c-1.118,0.021-2.24,0.006-3.525,0.006
				c0,0.619,0,1.123,0,1.63c0,11.156,0.007,22.315-0.005,33.475c-0.003,2.924-1.369,5.027-3.773,5.938
				c-3.82,1.454-7.94-1.303-7.956-5.422c-0.039-11.287-0.017-22.574-0.021-33.863c0-0.52,0-1.036,0-1.654c-0.818,0-1.573,0-2.517,0
				c0,0.489,0,0.994,0,1.501c0,11.029-0.012,22.057,0.01,33.086c0.003,1.989-0.37,3.812-1.929,5.178
				c-1.859,1.63-4,2.049-6.285,1.062c-2.279-0.982-3.529-2.806-3.57-5.284c-0.069-4.254-0.023-8.508-0.023-12.764
				c-0.001-7.121,0-14.241,0-21.36c0-0.465,0-0.931,0-1.526c-1.3,0-2.463,0.024-3.623-0.002c-1.898-0.046-3.11-1.55-2.758-3.405
				c2.108-11.01,4.219-22.018,6.322-33.028c0.057-0.291,0.05-0.596-0.101-0.954c-0.136,0.322-0.285,0.636-0.403,0.962
				c-2.777,7.691-5.546,15.388-8.328,23.077c-1.217,3.366-4.235,4.796-7.058,3.367c-2.277-1.149-3.273-3.616-2.389-6.181
				c1.411-4.09,2.885-8.159,4.344-12.232c2.479-6.927,4.969-13.845,7.454-20.77c2.177-6.063,6.603-9.195,13.01-9.2
				c4.472-0.004,8.945-0.005,13.418,0c6.314,0.007,10.843,3.187,12.934,9.129c3.945,11.224,7.867,22.455,11.806,33.684
				c0.024,0.07,0.118,0.115,0.179,0.175C126.817,88.796,126.817,89.491,126.817,90.188z"/>
			<path fill-rule="evenodd" clip-rule="evenodd" d="M28.84,138.737c-0.003,3.678-2.566,6.247-6.083,6.157
				c-2.936-0.077-5.338-2.428-5.587-5.49c-0.042-0.517-0.025-1.04-0.025-1.562c-0.001-26.313,0.004-52.629-0.022-78.943
				c-0.001-0.749,0.527-2.029-0.849-2.046c-1.302-0.015-0.946,1.22-0.949,2.01c-0.055,11.073-0.077,22.146-0.133,33.219
				c-0.004,0.9-0.046,1.852-0.332,2.691c-0.638,1.873-1.992,3.015-4.006,3.224c-2.166,0.225-3.787-0.662-4.867-2.543
				c-0.207-0.361-0.39-0.733-0.584-1.1c0-8.599,0-17.195,0-25.793c0.076-3.511,0.19-7.021,0.215-10.531
				c0.029-3.946,1.507-7.154,4.647-9.566c1.996-1.53,4.289-2.28,6.776-2.289c8.685-0.034,17.371-0.064,26.054,0.003
				c6.495,0.051,11.44,5.042,11.512,11.653c0.124,11.593,0.137,23.188,0.199,34.78c0.012,2.222-0.769,4.037-2.86,4.991
				c-1.789,0.814-3.566,0.607-5.126-0.656c-1.347-1.093-1.801-2.573-1.808-4.272c-0.05-11.288-0.123-22.579-0.189-33.867
				c-0.002-0.392,0.106-0.844-0.051-1.158c-0.203-0.399-0.624-0.687-0.951-1.023c-0.305,0.361-0.699,0.683-0.883,1.099
				c-0.145,0.327-0.033,0.769-0.033,1.158c0.019,26.4,0.028,52.804,0.075,79.206c0.005,2.353-0.5,4.382-2.531,5.791
				c-3.506,2.433-8.352,0.373-9.012-3.839c-0.114-0.724-0.162-1.465-0.164-2.198"/>
			<path fill-rule="evenodd" clip-rule="evenodd" d="M30.937,11.501c0.995,1.533,2.635,1.962,4.208,2.597
				c2.839,1.146,4.948,3.182,6.267,5.951c0.398,0.838,0.882,1.091,1.772,1.07c2.254-0.057,4.513-0.044,6.771,0.002
				c1.435,0.03,2.351,0.97,2.336,2.255c-0.016,1.272-0.956,2.194-2.392,2.202c-10.592,0.062-21.185,0.103-31.776,0.146
				c-0.167,0-0.337-0.043-0.616-0.083c-0.03-2.553,0.661-4.858,2.061-6.943c1.895-2.822,4.532-4.544,7.824-5.424
				c0.764-0.205,1.327-1.163,1.98-1.775C29.895,11.501,30.416,11.501,30.937,11.501z"/>
			<path fill-rule="evenodd" clip-rule="evenodd" d="M86.042,38.089c-0.551,0.62-0.942,1.437-1.51,1.591
				c-0.562,0.15-1.303-0.373-2.135-0.658c-0.859,2.256-3.016,2.481-5.464,2.501c-2.669,0.023-5.331,0.455-7.999,0.668
				c-0.435,0.035-1.064,0.009-1.278-0.252c-0.196-0.243-0.069-0.9,0.118-1.272c1.582-3.153,3.678-5.877,6.763-7.714
				c2.131-1.27,2.97-1.378,5.254-0.797c-0.185-1.802,0.443-2.345,2.439-2.112c0.083-9.882,7.808-14.029,13.773-13.567
				c6.821,0.528,11.871,6.363,11.628,13.481c0.687,0.097,1.509-0.006,2,0.349c0.443,0.32,0.526,1.141,0.805,1.834
				c2.122-0.976,4.054,0.089,5.894,1.366c2.661,1.852,4.535,4.384,5.952,7.266c0.164,0.337,0.258,1.001,0.083,1.15
				c-0.301,0.249-0.851,0.305-1.281,0.272c-2.842-0.213-5.679-0.639-8.52-0.666c-2.346-0.02-4.162-0.579-4.98-2.556
				c-0.742,0.294-1.487,0.874-2.042,0.73c-0.593-0.153-1.007-0.989-1.569-1.602c-2.304,2.196-5.293,3.646-8.91,3.652
				C91.441,41.76,88.417,40.393,86.042,38.089z"/>
			<path fill-rule="evenodd" clip-rule="evenodd" d="M42.808,28.76c-0.038,4.803-1.938,8.548-5.878,11.039
				c-4.568,2.887-9.326,2.817-13.822-0.159c-3.789-2.508-5.61-6.21-5.63-10.88C25.931,28.76,34.283,28.76,42.808,28.76z"/>
		</g>
	</g>
</g>
</svg>
