<?xml version="1.0" encoding="utf-8"?>
<!-- Generator: Adobe Illustrator 16.0.0, SVG Export Plug-In . SVG Version: 6.00 Build 0)  -->
<!DOCTYPE svg PUBLIC "-//W3C//DTD SVG 1.1//EN" "http://www.w3.org/Graphics/SVG/1.1/DTD/svg11.dtd">
<svg version="1.1" id="Capa_1" xmlns="http://www.w3.org/2000/svg" xmlns:xlink="http://www.w3.org/1999/xlink" x="0px" y="0px"
	 width="130px" height="115px" viewBox="0 0 130 115" enable-background="new 0 0 130 115" xml:space="preserve">
<g>
	<path fill="#010202" d="M101.787,42.698c-8.237,0-14.896,6.649-14.896,14.853c0,8.224,6.658,14.871,14.896,14.871
		c8.191,0,14.853-6.647,14.853-14.871C116.64,49.349,109.979,42.698,101.787,42.698z"/>
	<g>
		<g>
			<defs>
				<rect id="SVGID_1_" x="2.509" y="22.509" width="63.962" height="69.15"/>
			</defs>
			<clipPath id="SVGID_2_">
				<use xlink:href="#SVGID_1_"  overflow="visible"/>
			</clipPath>
			<path clip-path="url(#SVGID_2_)" fill="#010202" d="M70.974,128.659c-1.858,0.472-3.831-0.476-4.611-2.293L51.358,93.711
				l11.373,55.161H51.753l-3.392,45.143c0,2.164-1.782,3.958-3.939,3.958c-2.228,0-3.979-1.794-3.979-3.958l-3.381-45.143h-1.989
				h-2.001l-3.379,45.143c0,2.164-1.76,3.958-3.98,3.958c-2.165,0-3.938-1.794-3.938-3.958l-3.402-45.143H7.407l11.361-55.161
				L3.776,126.367c-0.854,2.008-3.195,2.953-5.207,2.1c-1.989-0.854-2.931-3.175-2.056-5.209c0,0,8.912-32.412,13.035-40.855
				c4.111-8.431,8.225-13.56,23.907-13.56h1.617h1.608c15.672,0,19.794,5.129,23.904,13.56c2.887,5.894,8.068,23.431,10.946,33.488"
				/>
		</g>
		<g>
			<defs>
				<rect id="SVGID_3_" x="2.509" y="22.509" width="63.962" height="69.15"/>
			</defs>
			<clipPath id="SVGID_4_">
				<use xlink:href="#SVGID_3_"  overflow="visible"/>
			</clipPath>
			<path clip-path="url(#SVGID_4_)" fill="#010202" d="M60.35,57.597c0,4.266-3.611,7.726-8.094,7.726
				c-3.127,0-5.751-1.739-7.097-4.223c-3.063,2.514-6.813,4.223-11.078,4.223c-4.286,0-8.028-1.706-11.09-4.223
				c-1.346,2.481-3.982,4.223-7.096,4.223c-4.483,0-8.095-3.46-8.095-7.726c0-4.25,3.61-7.718,8.095-7.718
				c0.339,0,0.644,0.154,0.983,0.197c-0.122-0.821-0.492-1.552-0.492-2.418c0-9.753,7.915-17.661,17.694-17.661
				c9.765,0,17.672,7.908,17.672,17.661c0,0.867-0.36,1.597-0.482,2.418c0.329-0.042,0.634-0.197,0.984-0.197
				C56.738,49.879,60.35,53.347,60.35,57.597z"/>
		</g>
	</g>
	<g>
		<g>
			<defs>
				<rect id="SVGID_5_" x="72.335" y="35.037" width="66.793" height="56.622"/>
			</defs>
			<clipPath id="SVGID_6_">
				<use xlink:href="#SVGID_5_"  overflow="visible"/>
			</clipPath>
			<path clip-path="url(#SVGID_6_)" fill="#010202" d="M74.318,107.686c-0.56-6.298,1.967-16.233,4.033-20.519
				c3.477-7.133,8.855-11.421,22.069-11.421h2.688c13.222,0,18.569,4.288,22.068,11.421c3.477,7.085,5.284,35.848,5.284,35.848
				c0.732,1.729-0.077,3.652-1.775,4.376c-1.684,0.722-3.642-0.108-4.362-1.774l-6.933-28.936c0,0-0.952,30.753-0.977,30.753
				l2.758,50.851c0.174,3.062-2.109,5.709-5.159,5.927c-0.145,0.021-0.274,0.021-0.418,0.021c-2.886,0-5.348-2.229-5.512-5.159
				l-6.332-47.986l-6.274,47.986c-0.23,2.93-2.67,5.159-5.568,5.159c-0.119,0-0.25,0-0.402-0.021
				c-3.043-0.218-5.349-2.864-5.15-5.927l2.712-50.851l-0.934-30.753c0,0-18.47,18.613-19.664,19.134"/>
		</g>
	</g>
</g>
</svg>
