<?xml version="1.0" encoding="utf-8"?>
<!-- Generator: Adobe Illustrator 16.0.0, SVG Export Plug-In . SVG Version: 6.00 Build 0)  -->
<!DOCTYPE svg PUBLIC "-//W3C//DTD SVG 1.1//EN" "http://www.w3.org/Graphics/SVG/1.1/DTD/svg11.dtd">
<svg version="1.1" id="Capa_1" xmlns="http://www.w3.org/2000/svg" xmlns:xlink="http://www.w3.org/1999/xlink" x="0px" y="0px"
	 width="130px" height="115px" viewBox="0 0 130 115" enable-background="new 0 0 130 115" xml:space="preserve">
<g>
	<g>
		<g>
			<path fill="none" d="M65.889,28.576c0.825,0,1.464,0.229,2.088,0.758c1.52,1.299,3.091,2.541,4.645,3.804
				c1.589,1.295,3.184,2.58,4.774,3.868c-0.703-2.13-1.551-4.144-2.399-6.161c-0.617-1.478-0.116-2.244,1.481-2.256
				c1.051-0.004,5.766,0,6.815,0c0-8.712,0-11.621,0-20.231c-13.257,0-18.954,0-32.211,0c0,7.745,0,10.911,0,17.76
				c2.139,0.447,4.127,1.299,5.885,2.473C59.794,28.592,59.851,28.591,65.889,28.576z"/>
			<path fill="#010202" d="M84.062,5.657c-13.73,0.018-19.955,0.011-33.686,0.014c-1.636,0-1.978,0.347-1.978,2.006
				c0,7.818,0,11.444,0,18.119c0.914,0.042,1.813,0.139,2.684,0.321c0-6.849,0-10.016,0-17.76c13.257,0,18.955,0,32.211,0
				c0,8.61,0,11.519,0,20.231c-1.05,0-5.765-0.004-6.815,0c-1.598,0.013-2.099,0.779-1.481,2.256
				c0.849,2.018,1.696,4.031,2.399,6.161c-1.591-1.289-3.186-2.573-4.774-3.868c-1.554-1.263-3.125-2.505-4.645-3.804
				c-0.624-0.529-1.263-0.758-2.088-0.758c-6.038,0.015-6.095,0.016-8.922,0.015c1.124,0.75,2.14,1.641,3.051,2.632
				c1.164,0.004,2.713,0.011,5.148,0.021c0.536,0,1.173,0.24,1.593,0.58c4.352,3.485,6.839,4.268,11.168,7.779
				c1.082,0.882,1.748,0.793,2.568-0.314c0-0.27,0-0.535,0-0.802c-1.42-3.275-1.009-3.801-2.516-7.269
				c0.948,0,1.72-0.045,2.494,0.013c0.865,0.068,5.146-0.229,5.517-1.02c0-9.758,0-13.882,0-23.638
				C85.563,5.808,84.887,5.655,84.062,5.657z"/>
			<path fill="#FFFFFF" d="M56.966,28.591c-1.757-1.174-3.746-2.026-5.885-2.473c-0.871-0.182-1.77-0.279-2.684-0.321
				c-0.262-0.012-0.52-0.04-0.784-0.04c-9.314,0-16.866,7.551-16.866,16.866c0,9.314,7.552,16.866,16.866,16.866
				c9.315,0,16.866-7.551,16.866-16.866c0-4.402-1.7-8.397-4.462-11.4C59.106,30.232,58.09,29.341,56.966,28.591z"/>
		</g>
		<g>
			<path fill="#010202" d="M47.357,60.682c9.081,0,16.447-7.365,16.447-16.443c0-9.084-7.366-16.453-16.447-16.453
				c-9.087,0-16.444,7.369-16.444,16.453C30.913,53.316,38.27,60.682,47.357,60.682z"/>
		</g>
	</g>
	<g>
		<path fill="#010202" d="M95.642,70.401c-1.111,3.534-4.835,5.497-9.269,5.497c-4.436,0-8.159-1.964-9.271-5.5h-0.59
			c-1.999,0-3.9,0.771-5.639,2.147c-3.168-5.857-7.462-9.475-12.2-9.475H36.046c-9.722,0-17.61,15.146-17.61,33.838v12.548h43.251
			h14.596h34.109V98.89C110.391,83.203,103.791,70.48,95.642,70.401z"/>
	</g>
	<path fill="#010202" d="M70.747,66.203c0.746,2.397,2.626,3.114,4.622,3.114c3.086,0,6.48-1.717,6.48-1.717
		c-1.601-0.934-2.421-2.778-2.816-4.659c1.677,2.777,4.584,4.609,7.873,4.609c3.292,0,6.199-1.832,7.877-4.609
		c-0.396,1.867-1.218,3.726-2.816,4.659c0,0,3.392,1.717,6.479,1.717c2.012,0,3.881-0.729,4.624-3.114
		c0.114-0.343-0.041-0.726-0.372-0.906c-1.116-0.603-3.56-2.331-3.56-5.891c0-4.61,1.15-18.569-12.231-18.569
		c-13.381,0-12.228,13.958-12.228,18.569c0,3.56-2.446,5.288-3.56,5.891C70.783,65.478,70.633,65.86,70.747,66.203z"/>
</g>
</svg>
