<?xml version="1.0" encoding="utf-8"?>
<!-- Generator: Adobe Illustrator 16.0.0, SVG Export Plug-In . SVG Version: 6.00 Build 0)  -->
<!DOCTYPE svg PUBLIC "-//W3C//DTD SVG 1.1//EN" "http://www.w3.org/Graphics/SVG/1.1/DTD/svg11.dtd">
<svg version="1.1" id="Capa_1" xmlns="http://www.w3.org/2000/svg" xmlns:xlink="http://www.w3.org/1999/xlink" x="0px" y="0px"
	 width="130px" height="115px" viewBox="0 0 130 115" enable-background="new 0 0 130 115" xml:space="preserve">
<path fill="#231A17" d="M105.628,43.144c0-11.543-9.617-20.901-21.479-20.901c-8.383,0-15.617,4.678-19.158,11.485
	c-3.542-6.809-10.78-11.485-19.159-11.485c-11.867,0-21.479,9.358-21.479,20.901c0,0.064,0.007,0.131,0.007,0.198
	c-0.107,2.271-0.027,24.304,40.631,47.39v0.012c0.002,0,0.004-0.004,0.012-0.006c0.002,0.002,0.006,0.006,0.01,0.006l0.004-0.012
	C107.946,66.354,105.628,43.144,105.628,43.144z M81.401,61.959H70.466v10.932H59.534V61.959H48.601V51.03h10.935V40.097h10.933
	V51.03h10.934V61.959L81.401,61.959z"/>
</svg>
