<?xml version="1.0" encoding="utf-8"?>
<!-- Generator: Adobe Illustrator 16.0.0, SVG Export Plug-In . SVG Version: 6.00 Build 0)  -->
<!DOCTYPE svg PUBLIC "-//W3C//DTD SVG 1.1//EN" "http://www.w3.org/Graphics/SVG/1.1/DTD/svg11.dtd">
<svg version="1.1" id="Capa_1" xmlns="http://www.w3.org/2000/svg" xmlns:xlink="http://www.w3.org/1999/xlink" x="0px" y="0px"
	 width="130px" height="115px" viewBox="0 0 130 115" enable-background="new 0 0 130 115" xml:space="preserve">
<g>
	<g id="Q0Z27I.tif">
		<g>
			<path fill-rule="evenodd" clip-rule="evenodd" d="M62.852,12.211c10.704,0.212,19.129,2.249,26.24,8.225
				c0.589,0.494,1.152,1.024,1.68,1.583c4.171,4.426,4.395,7.082,0.353,11.61c-1.885,2.112-2.615,4.221-2.434,6.956
				c0.522,7.896-0.492,15.534-4.548,22.498c-1.262,2.167-2.651,4.315-4.301,6.189c-8.83,10.028-21.599,10.083-30.521,0.152
				c-1.109-1.234-1.938-1.614-3.656-1.108c-5.273,1.554-10.774-1.416-12.73-6.579c-1.943-5.126,0.272-10.999,5.292-13.301
				c1.711-0.784,2.353-1.69,2.092-3.446c-0.082-0.548-0.042-1.121,0.003-1.678c0.335-4.139-0.226-7.778-3.427-11.048
				c-2.873-2.936-2.578-5.279,0.021-8.625c4.374-5.633,10.443-8.571,17.198-10.13C57.503,12.728,61.014,12.474,62.852,12.211z
				 M86.062,42.035c-7.986-7.436-35.874-7.369-43.153,0.142c1.289,1.392,2.504,2.914,3.953,4.167
				c0.562,0.485,1.698,0.619,2.493,0.476c3.354-0.605,6.648-1.698,10.02-2.021c6.431-0.611,12.926-0.61,19.11,1.549
				c2.207,0.771,3.628,0.36,5.011-1.164C84.377,44.211,85.16,43.147,86.062,42.035z M72.61,21.49
				c-0.358-0.302-0.801-0.871-1.38-1.128c-1.846-0.821-3.726-1.575-5.631-2.248c-0.599-0.211-1.386-0.274-1.969-0.07
				c-2.04,0.711-4.047,1.523-6.02,2.403c-0.464,0.208-1.007,0.803-1.062,1.272c-0.445,3.751,2.7,9.399,6.089,11.285
				c1.292,0.719,2.443,0.749,3.725,0.003C70.623,30.529,71.901,26.429,72.61,21.49z"/>
			<path fill-rule="evenodd" clip-rule="evenodd" d="M110.182,106.271c-6.015,0-11.732,0-17.562,0
				c0.453-1.95,0.889-3.819,1.322-5.689c0.281-1.204-0.033-2.058-1.36-2.331c-0.201-0.041-0.384-0.167-0.578-0.246
				c-6.51-2.637-6.523-2.665-12.898,0.438c-0.53,0.259-1.074,1.283-0.992,1.862c0.281,1.981,0.839,3.924,1.329,6.047
				c-3.318,0-6.602,0.048-9.88-0.056c-0.449-0.016-1.122-0.723-1.269-1.231c-0.599-2.081-1.141-4.193-1.472-6.329
				c-0.121-0.776,0.267-1.725,0.659-2.47c0.865-1.648,2.695-3.269,2.6-4.806c-0.09-1.435-2.15-2.753-3.354-4.115
				c-0.682-0.771-1.381-1.525-2.226-2.456c-1.921,2.131-3.71,4.073-5.431,6.073c-0.234,0.274-0.14,0.846-0.16,1.279
				c-0.004,0.115,0.115,0.259,0.213,0.354c3.576,3.428,3.342,7.396,1.905,11.702c-0.5,1.494-0.962,2.118-2.637,2.104
				c-9.937-0.086-19.876-0.044-29.813-0.044c-3.139-0.001-6.276,0-9.755,0c1.356-6.584,2.527-12.99,7.005-18.052
				c1.188-1.344,3.071-2.167,4.765-2.948c3.301-1.522,6.666-2.914,10.055-4.229c2.356-0.913,4.318-2.168,5.606-4.433
				c0.716-1.261,1.701-2.369,2.711-3.743c5.196,3.979,10.285,7.879,15.542,11.905c5.12-3.922,10.257-7.858,15.534-11.901
				c0.931,1.263,1.879,2.306,2.548,3.506c1.379,2.478,3.54,3.795,6.09,4.799c3.837,1.513,7.732,2.971,11.339,4.936
				c2.114,1.151,4.129,2.97,5.462,4.972C108.436,95.608,109.476,100.793,110.182,106.271z"/>
			<path fill-rule="evenodd" clip-rule="evenodd" fill="#FFFFFF" d="M86.062,42.035c-0.901,1.113-1.685,2.176-2.566,3.149
				c-1.383,1.524-2.804,1.935-5.011,1.164c-6.185-2.159-12.68-2.16-19.11-1.549c-3.372,0.322-6.666,1.415-10.02,2.021
				c-0.794,0.143-1.93,0.009-2.493-0.476c-1.448-1.253-2.664-2.775-3.953-4.167C50.188,34.666,78.075,34.599,86.062,42.035z"/>
			<path fill-rule="evenodd" clip-rule="evenodd" fill="#FFFFFF" d="M72.61,21.49c-0.709,4.939-1.987,9.039-6.247,11.517
				c-1.282,0.746-2.434,0.716-3.725-0.003c-3.389-1.885-6.534-7.533-6.089-11.285c0.056-0.47,0.599-1.064,1.062-1.272
				c1.972-0.88,3.98-1.692,6.02-2.403c0.583-0.204,1.37-0.141,1.969,0.07c1.905,0.672,3.785,1.426,5.631,2.248
				C71.81,20.619,72.252,21.188,72.61,21.49z"/>
		</g>
	</g>
	<circle cx="42.49" cy="58.225" r="10.751"/>
</g>
</svg>
