<?xml version="1.0" encoding="utf-8"?>
<!-- Generator: Adobe Illustrator 16.0.0, SVG Export Plug-In . SVG Version: 6.00 Build 0)  -->
<!DOCTYPE svg PUBLIC "-//W3C//DTD SVG 1.1//EN" "http://www.w3.org/Graphics/SVG/1.1/DTD/svg11.dtd">
<svg version="1.1" id="Capa_1" xmlns="http://www.w3.org/2000/svg" xmlns:xlink="http://www.w3.org/1999/xlink" x="0px" y="0px"
	 width="130px" height="115px" viewBox="0 0 130 115" enable-background="new 0 0 130 115" xml:space="preserve">
<g>
	<g>
		<g>
			<defs>
				<rect id="SVGID_1_" x="12.437" y="9.219" width="118.334" height="110.531"/>
			</defs>
			<clipPath id="SVGID_2_">
				<use xlink:href="#SVGID_1_"  overflow="visible"/>
			</clipPath>
			<g id="ByaDhF.tif" clip-path="url(#SVGID_2_)">
				<g>
					<path d="M47.502,57.789c-0.568,2.636-1.165,5.344-1.731,8.056c-0.495,2.373-1.824,4.123-3.974,5.185
						c-0.741,0.367-0.908,0.8-0.907,1.566c0.018,10.573,0.005,21.146-0.008,31.72c-0.004,3.416-2.499,5.866-5.837,5.761
						c-2.955-0.095-5.302-2.583-5.313-5.744c-0.025-5.996,0-11.991,0.006-17.985c0.005-5.37,0.021-10.738,0.004-16.107
						c0-0.337-0.146-0.767-0.378-0.997c-2.296-2.286-3.05-4.923-2.325-8.131c1.583-7.003,3.072-14.027,4.503-21.063
						c0.759-3.738,3.085-5.824,6.608-6.751c6.222-1.637,11.206,2.629,12.263,6.584c0.524,1.962,0.675,4.02,1.082,6.018
						c0.297,1.46,0.673,2.912,1.13,4.33c0.48,1.493,1.495,2.637,2.942,3.229c1.554,0.634,3.175,1.104,4.784,1.591
						c0.228,0.07,0.643-0.094,0.814-0.289c0.932-1.047,2.067-1.5,3.468-1.52c2.803-0.04,5.604-0.102,8.363-0.744
						c2.225-0.521,3.745-1.777,4.272-4.004c0.608-2.564,1.109-5.154,1.594-7.746c0.73-3.9,4.691-7.49,8.681-7.706
						c1.157-0.062,2.366-0.039,3.479,0.234c2.832,0.693,4.529,2.663,5.226,5.413c2.364,9.332,4.662,18.682,6.977,28.025
						c0.096,0.392,0.107,0.807,0.162,1.251c1.999,0.717,3.263,2.141,3.772,4.286c2.582,0,5.133,0,7.729,0c0,7.748,0,15.421,0,23.188
						c-0.3,0.015-0.59,0.043-0.879,0.043c-9.837,0.003-19.675-0.006-29.513,0.018c-0.768,0.003-0.957-0.237-0.955-0.971
						c0.023-7.112,0.015-14.225,0.016-21.338c0-0.293,0.028-0.587,0.047-0.966c1.285,0,2.505,0,3.727,0
						c1.146,0,2.29,0.025,3.434-0.021c0.248-0.01,0.646-0.224,0.707-0.427c0.561-1.861,1.774-3.084,3.671-3.829
						c-0.444-1.813-0.822-3.643-1.347-5.433c-1.216-4.149-2.494-8.278-3.776-12.407c-0.148-0.479-0.448-0.925-0.749-1.334
						c-0.111-0.151-0.511-0.273-0.627-0.191c-0.177,0.124-0.292,0.433-0.302,0.67c-0.009,0.258,0.11,0.529,0.214,0.779
						c2.232,5.371,3.659,10.982,4.945,16.637c0.111,0.493,0.015,0.781-0.442,1.054c-1.105,0.659-1.911,1.622-2.418,2.801
						c-0.196,0.457-0.455,0.583-0.922,0.589c-2.916,0.048-5.175-1.768-5.896-4.881c-0.712-3.068-1.34-6.158-2.004-9.237
						c-0.079,0-0.151-0.021-0.178,0.005c-2.754,2.59-6.175,3.556-9.796,4.022c-1.052,0.136-2.116,0.197-3.167,0.334
						c-0.218,0.03-0.492,0.211-0.601,0.401c-0.986,1.734-2.448,2.495-4.427,2.213c-4.187-0.592-8.354-1.311-12.114-3.374
						C50.121,59.819,48.868,58.75,47.502,57.789z M94.128,72.16c3.522,0,6.755,0,10.117,0c-0.225-0.331-0.351-0.569-0.526-0.769
						c-0.73-0.829-1.247-0.887-2.125-0.267c-1.456,1.029-3.404,1.001-4.855-0.162c-0.516-0.413-0.94-0.384-1.378-0.036
						C94.969,71.24,94.645,71.637,94.128,72.16z"/>
					<path d="M47.429,33.593c-5.796-0.012-10.499-4.721-10.498-10.513c0.001-5.821,4.741-10.528,10.586-10.513
						c5.767,0.016,10.495,4.79,10.452,10.559C57.925,28.943,53.23,33.604,47.429,33.593z"/>
					<path d="M82.02,33.594c-5.848-0.011-10.492-4.709-10.474-10.59c0.019-5.786,4.738-10.451,10.558-10.434
						c5.782,0.014,10.441,4.731,10.429,10.558C92.52,28.94,87.836,33.604,82.02,33.594z"/>
					<path d="M88.651,96.948c3.677,0,7.316,0,11.029,0c0.018,0.238,0.05,0.473,0.051,0.707c0.003,2.26,0.016,4.521-0.002,6.779
						c-0.025,3.197-2.431,5.635-5.542,5.645c-3.099,0.009-5.566-2.433-5.606-5.601c-0.031-2.398-0.003-4.793,0.002-7.189
						C88.583,97.211,88.612,97.133,88.651,96.948z"/>
					<path fill="#FFFFFF" d="M94.128,72.16c0.517-0.525,0.841-0.92,1.233-1.233c0.438-0.346,0.862-0.377,1.378,0.037
						c1.45,1.162,3.399,1.19,4.855,0.161c0.878-0.619,1.395-0.561,2.125,0.267c0.175,0.199,0.302,0.438,0.526,0.77
						C100.883,72.16,97.65,72.16,94.128,72.16z"/>
				</g>
			</g>
		</g>
	</g>
	<polygon points="28.6,54.505 16.734,91.914 58.216,92.169 47.781,57.846 	"/>
	<circle cx="36.712" cy="20.15" r="5.726"/>
</g>
</svg>
