<?xml version="1.0" encoding="utf-8"?>
<!-- Generator: Adobe Illustrator 16.0.0, SVG Export Plug-In . SVG Version: 6.00 Build 0)  -->
<!DOCTYPE svg PUBLIC "-//W3C//DTD SVG 1.1//EN" "http://www.w3.org/Graphics/SVG/1.1/DTD/svg11.dtd">
<svg version="1.1" id="Capa_1" xmlns="http://www.w3.org/2000/svg" xmlns:xlink="http://www.w3.org/1999/xlink" x="0px" y="0px"
	 width="130px" height="115px" viewBox="0 0 130 115" enable-background="new 0 0 130 115" xml:space="preserve">
<path d="M29.316,32.145h-2.201c-4.563,0-8.296,3.733-8.296,8.263v2.216c0,4.438,3.545,8.066,7.937,8.259v43.124h-1.167
	c-2.516,0-4.56,2.04-4.56,4.559h14.11c0-2.519-2.052-4.559-4.575-4.559h-0.896V50.885c4.396-0.19,7.916-3.823,7.916-8.262v-2.216
	C37.584,35.878,33.876,32.145,29.316,32.145z M102.121,21.931H87.223c0-3.646-2.949-6.598-6.605-6.598h-7.192
	c-3.653,0-6.606,2.952-6.606,6.598H52.132c-5.018,0-9.288,4.091-9.288,9.101v52.596c0,3.379,2.599,6.12,5.952,6.12h1.631v3.145
	c0,3.377,2.715,6.106,6.118,6.106c3.361,0,6.098-2.729,6.098-6.106v-3.145h28.539v3.145c0,3.377,2.728,6.106,6.106,6.106
	c3.377,0,6.121-2.729,6.121-6.106v-3.145h1.633c3.356,0,6.139-2.741,6.139-6.12V31.032
	C111.186,26.022,107.135,21.931,102.121,21.931z M47.356,31.038c0-2.623,2.141-4.761,4.784-4.761h49.976
	c2.621,0,4.76,2.136,4.76,4.761v0.674c0,2.569-2.186,4.734-4.76,4.734H52.141c-2.644,0-4.784-2.12-4.784-4.734V31.038z
	 M52.249,82.569c-2.999,0-5.439-2.425-5.439-5.439c0-2.999,2.44-5.437,5.439-5.437S57.7,74.131,57.7,77.13
	C57.7,80.145,55.248,82.569,52.249,82.569z M52.141,62.499c-2.644,0-4.784-2.118-4.784-4.737V44.586c0-2.61,2.141-4.745,4.784-4.745
	h49.976c2.621,0,4.76,2.134,4.76,4.745v13.176c0,2.564-2.186,4.737-4.76,4.737H52.141z M101.779,82.569
	c-3.017,0-5.456-2.425-5.456-5.439c0-2.999,2.439-5.437,5.456-5.437c2.999,0,5.442,2.438,5.442,5.437
	C107.222,80.145,104.778,82.569,101.779,82.569z"/>
</svg>
