<?xml version="1.0" encoding="utf-8"?>
<!-- Generator: Adobe Illustrator 16.0.0, SVG Export Plug-In . SVG Version: 6.00 Build 0)  -->
<!DOCTYPE svg PUBLIC "-//W3C//DTD SVG 1.1//EN" "http://www.w3.org/Graphics/SVG/1.1/DTD/svg11.dtd">
<svg version="1.1" id="Capa_1" xmlns="http://www.w3.org/2000/svg" xmlns:xlink="http://www.w3.org/1999/xlink" x="0px" y="0px"
	 width="130px" height="115px" viewBox="0 0 130 115" enable-background="new 0 0 130 115" xml:space="preserve">
<g>
	<g>
		<path fill="#1E1E1C" d="M42.51,108.046c0-4.547,2.163-8.579,5.506-11.156l-6.54-78.477L30.685,8.393L18.351,19.955l-6.936,90.957
			h31.388C42.611,109.986,42.51,109.028,42.51,108.046z"/>
		<path d="M45.084,111.079h6.127c4.894-8.725,13.377-14.985,23.332-16.569C59.978,96.138,48.41,102.683,45.084,111.079"/>
		<path d="M114.579,111.079h5.707c-3.226-8.137-14.19-14.534-28.123-16.404C101.721,96.49,109.836,102.624,114.579,111.079"/>
		<path d="M85.64,90.731c7.485,0.462,15.336,1.173,22.819-0.184c-0.609-15.975-12.397-28.717-26.854-28.717
			c-14.309,0-26.002,12.48-26.835,28.219C65.062,90.055,75.358,90.097,85.64,90.731"/>
		<g opacity="0.25">
			<g>
				<defs>
					<rect id="SVGID_1_" x="54.873" y="61.831" width="33.47" height="27.506"/>
				</defs>
				<clipPath id="SVGID_2_">
					<use xlink:href="#SVGID_1_"  overflow="visible"/>
				</clipPath>
				<path clip-path="url(#SVGID_2_)" fill="#CBC7BA" d="M68.285,89.337c0.956-12.86,9.171-23.42,20.058-26.556
					c-2.155-0.621-4.412-0.95-6.738-0.95c-13.875,0-25.294,11.734-26.732,26.8C59.335,88.547,63.813,89.051,68.285,89.337"/>
			</g>
		</g>
		<rect x="52.026" y="86.368" fill="#FFFFFF" width="59.304" height="11.295"/>
		<rect x="66.689" y="88.486" width="2.824" height="6.354"/>
		<rect x="57.529" y="88.486" width="2.825" height="6.354"/>
		<rect x="62.47" y="88.486" width="2.119" height="6.354"/>
		<rect x="66.709" y="88.486" width="2.115" height="6.354"/>
		<rect x="70.943" y="88.486" width="2.116" height="6.354"/>
		<rect x="74.473" y="88.486" width="2.825" height="6.354"/>
		<rect x="79.414" y="88.486" width="2.824" height="6.354"/>
		<rect x="83.65" y="88.486" width="2.823" height="6.354"/>
		<rect x="87.181" y="88.486" width="2.823" height="6.354"/>
		<rect x="91.418" y="88.486" width="2.82" height="6.354"/>
		<rect x="96.358" y="88.486" width="2.824" height="6.354"/>
		<rect x="100.594" y="88.486" width="2.119" height="6.354"/>
		<rect x="104.124" y="88.486" width="2.823" height="6.354"/>
		<polygon fill="#CBC7BA" points="87.831,101.9 74.776,101.9 62.143,96.959 100.463,96.959 		"/>
		<polygon fill="#FFFFFF" points="87.831,107.547 74.776,107.547 62.143,96.959 100.463,96.959 		"/>
		<polygon points="87.831,101.9 74.776,101.9 62.143,96.959 100.463,96.959 		"/>
	</g>
	<polygon fill="#FFFFFF" points="32.858,16.24 35.236,20.399 37.612,20.281 35.236,16.122 	"/>
	<polygon fill="#FFFFFF" points="27.985,16.24 25.609,20.399 23.233,20.281 25.609,16.122 	"/>
	<line fill="#FFFFFF" x1="30.779" y1="8.16" x2="30.779" y2="110.829"/>
</g>
</svg>
