<?xml version="1.0" encoding="utf-8"?>
<!-- Generator: Adobe Illustrator 16.0.0, SVG Export Plug-In . SVG Version: 6.00 Build 0)  -->
<!DOCTYPE svg PUBLIC "-//W3C//DTD SVG 1.1//EN" "http://www.w3.org/Graphics/SVG/1.1/DTD/svg11.dtd">
<svg version="1.1" id="Capa_1" xmlns="http://www.w3.org/2000/svg" xmlns:xlink="http://www.w3.org/1999/xlink" x="0px" y="0px"
	 width="130px" height="115px" viewBox="0 0 130 115" enable-background="new 0 0 130 115" xml:space="preserve">
<g id="fZGsXm.tif">
	<g>
		<path fill-rule="evenodd" clip-rule="evenodd" d="M66.012,11.652c1.244,1.184,2.471,2.39,3.74,3.549
			c2.814,2.57,5.652,5.119,8.48,7.676c4.707,4.255,9.422,8.501,14.121,12.766c5.59,5.068,11.162,10.152,16.746,15.226
			c2.492,2.266,4.998,4.518,7.496,6.777c0.244,0.222,0.479,0.454,0.711,0.676c-1.574,2.284-3.701,3.076-6.434,2.402
			c-2.299-0.565-4.238-1.782-5.98-3.352C98.604,51.71,92.32,46.042,86.02,40.393c-6.32-5.667-12.656-11.316-18.984-16.975
			c-0.369-0.332-0.729-0.677-1.16-1.08c-1.457,1.229-2.878,2.429-4.299,3.629c-4.594,3.877-9.192,7.75-13.778,11.635
			c-3.8,3.221-7.579,6.466-11.38,9.686c-3.802,3.221-7.624,6.416-11.431,9.632c-1.592,1.343-3.104,2.789-5.046,3.657
			c-2.906,1.298-5.411,0.616-7.248-2.046c1.995-1.761,3.995-3.528,5.996-5.294c4.465-3.942,8.925-7.889,13.396-11.827
			c4.365-3.845,8.744-7.676,13.11-11.519c4.219-3.716,8.43-7.441,12.644-11.163c2.67-2.358,5.338-4.717,8.006-7.076
			C65.9,11.652,65.955,11.652,66.012,11.652z"/>
		<path fill-rule="evenodd" clip-rule="evenodd" d="M55.471,104.458c-0.409,0-0.708-0.001-1.006,0
			c-8.25,0.003-16.5,0.01-24.75,0.013c-2.114,0.002-2.801-0.675-2.801-2.798c-0.004-13.128-0.007-26.256,0.021-39.384
			c0-0.398,0.248-0.92,0.554-1.181c4.714-3.991,9.46-7.946,14.193-11.919c5.648-4.741,11.289-9.489,16.936-14.233
			c2.153-1.807,4.312-3.605,6.471-5.404c0.146-0.122,0.313-0.218,0.497-0.342c2.186,1.938,4.35,3.854,6.512,5.773
			c3.041,2.699,6.08,5.396,9.115,8.1c3.471,3.094,6.936,6.194,10.404,9.287c3.283,2.926,6.582,5.832,9.834,8.791
			c0.307,0.278,0.465,0.865,0.465,1.31c0.025,10.731,0.021,21.462,0.021,32.191c0,2.202,0.02,4.404-0.008,6.605
			c-0.025,2.13-0.949,3.044-3.066,3.12c-0.223,0.008-0.447,0.003-0.67,0.003c-5.406,0.001-10.814,0.001-16.221,0.001
			c-2.508,0-5.016-0.001-7.525-0.001c-0.328,0-0.656,0-1.09,0c0-0.396-0.002-0.694,0-0.99c0.012-6.772,0.021-13.545,0.035-20.317
			c0.006-2.384-1.088-3.731-3.473-3.804c-3.814-0.117-7.636-0.104-11.452-0.018c-2.013,0.046-2.957,1.244-2.963,3.386
			c-0.018,6.885-0.023,13.77-0.034,20.652C55.47,103.654,55.471,104.007,55.471,104.458z"/>
		<path fill-rule="evenodd" clip-rule="evenodd" d="M104.902,43.382c-1.123-0.938-2.121-1.766-3.111-2.602
			c-2.082-1.759-4.152-3.535-6.246-5.278c-0.549-0.456-0.834-0.924-0.826-1.69c0.037-3.511,0-7.023-0.012-10.534
			c0-0.3,0-0.601,0-0.954c3.453,0,6.811,0,10.195,0C104.902,29.322,104.902,36.264,104.902,43.382z"/>
	</g>
</g>
</svg>
